<svg width="20" height="21" viewBox="0 0 20 21" fill="none" xmlns="http://www.w3.org/2000/svg">
<circle opacity="0.3" cx="10" cy="10.2852" r="8.8331" fill="#3E3E3E"/>
<path d="M9 7.28516H11V5.28516H9V7.28516ZM10 18.2852C5.59 18.2852 2 14.6952 2 10.2852C2 5.87516 5.59 2.28516 10 2.28516C14.41 2.28516 18 5.87516 18 10.2852C18 14.6952 14.41 18.2852 10 18.2852ZM10 0.285156C8.68678 0.285156 7.38642 0.543814 6.17317 1.04636C4.95991 1.54891 3.85752 2.2855 2.92893 3.21409C1.05357 5.08945 0 7.63299 0 10.2852C0 12.9373 1.05357 15.4809 2.92893 17.3562C3.85752 18.2848 4.95991 19.0214 6.17317 19.524C7.38642 20.0265 8.68678 20.2852 10 20.2852C12.6522 20.2852 15.1957 19.2316 17.0711 17.3562C18.9464 15.4809 20 12.9373 20 10.2852C20 8.97194 19.7413 7.67158 19.2388 6.45832C18.7362 5.24507 17.9997 4.14267 17.0711 3.21409C16.1425 2.2855 15.0401 1.54891 13.8268 1.04636C12.6136 0.543814 11.3132 0.285156 10 0.285156ZM9 15.2852H11V9.28516H9V15.2852Z" fill="#3E3E3E"/>
</svg>
