<svg width="156" height="52" viewBox="0 0 156 52" fill="none" xmlns="http://www.w3.org/2000/svg">
<g filter="url(#filter0_d_55_25626)">
<rect x="10" y="5" width="136" height="32" rx="15" fill="url(#paint0_linear_55_25626)"/>
<rect x="10" y="5" width="136" height="32" rx="15" fill="url(#paint1_linear_55_25626)" fill-opacity="0.4"/>
</g>
<path d="M57.3738 27.612C57.1818 27.612 57.0272 27.5693 56.9098 27.484C56.8032 27.3987 56.7392 27.2813 56.7178 27.132C56.6965 26.9827 56.7285 26.8173 56.8138 26.636L61.1818 16.748C61.2778 16.524 61.4005 16.364 61.5498 16.268C61.6992 16.1613 61.8645 16.108 62.0458 16.108C62.2272 16.108 62.3872 16.1613 62.5258 16.268C62.6752 16.364 62.8032 16.524 62.9098 16.748L67.2778 26.636C67.3632 26.8173 67.3952 26.988 67.3738 27.148C67.3632 27.2973 67.3045 27.4147 67.1978 27.5C67.0912 27.5747 66.9418 27.612 66.7498 27.612C66.5365 27.612 66.3658 27.5587 66.2378 27.452C66.1098 27.3347 65.9978 27.1693 65.9018 26.956L64.7658 24.3L65.4538 24.684H58.6058L59.2938 24.3L58.1578 26.956C58.0618 27.1907 57.9552 27.3613 57.8378 27.468C57.7205 27.564 57.5658 27.612 57.3738 27.612ZM62.0138 17.9L59.5178 23.804L59.1338 23.468H64.9258L64.5578 23.804L62.0458 17.9H62.0138ZM71.5242 27.644C70.7242 27.644 70.1162 27.4093 69.7002 26.94C69.2842 26.46 69.0762 25.772 69.0762 24.876V16.844C69.0762 16.5987 69.1402 16.4173 69.2682 16.3C69.3962 16.172 69.5722 16.108 69.7962 16.108C70.0309 16.108 70.2122 16.172 70.3402 16.3C70.4682 16.4173 70.5322 16.5987 70.5322 16.844V24.764C70.5322 25.3187 70.6442 25.7347 70.8682 26.012C71.1029 26.2787 71.4335 26.412 71.8602 26.412C71.9562 26.412 72.0415 26.412 72.1162 26.412C72.1909 26.4013 72.2655 26.3907 72.3402 26.38C72.4575 26.3693 72.5429 26.4013 72.5962 26.476C72.6495 26.5507 72.6762 26.7 72.6762 26.924C72.6762 27.1267 72.6282 27.2867 72.5322 27.404C72.4469 27.5107 72.3029 27.58 72.1002 27.612C72.0042 27.6227 71.9082 27.628 71.8122 27.628C71.7162 27.6387 71.6202 27.644 71.5242 27.644ZM76.3367 27.644C75.5367 27.644 74.9287 27.4093 74.5127 26.94C74.0967 26.46 73.8887 25.772 73.8887 24.876V16.844C73.8887 16.5987 73.9527 16.4173 74.0807 16.3C74.2087 16.172 74.3847 16.108 74.6087 16.108C74.8434 16.108 75.0247 16.172 75.1527 16.3C75.2807 16.4173 75.3447 16.5987 75.3447 16.844V24.764C75.3447 25.3187 75.4567 25.7347 75.6807 26.012C75.9154 26.2787 76.246 26.412 76.6727 26.412C76.7687 26.412 76.854 26.412 76.9287 26.412C77.0034 26.4013 77.078 26.3907 77.1527 26.38C77.27 26.3693 77.3554 26.4013 77.4087 26.476C77.462 26.5507 77.4887 26.7 77.4887 26.924C77.4887 27.1267 77.4407 27.2867 77.3447 27.404C77.2594 27.5107 77.1154 27.58 76.9127 27.612C76.8167 27.6227 76.7207 27.628 76.6247 27.628C76.5287 27.6387 76.4327 27.644 76.3367 27.644ZM81.9351 27.644C81.1671 27.644 80.5004 27.4787 79.9351 27.148C79.3697 26.8173 78.9324 26.348 78.6231 25.74C78.3137 25.132 78.1591 24.4173 78.1591 23.596C78.1591 22.9773 78.2444 22.4227 78.4151 21.932C78.5964 21.4307 78.8524 21.004 79.1831 20.652C79.5137 20.3 79.9084 20.0333 80.3671 19.852C80.8364 19.66 81.3591 19.564 81.9351 19.564C82.7031 19.564 83.3697 19.7293 83.9351 20.06C84.5004 20.3907 84.9377 20.86 85.2471 21.468C85.5564 22.0653 85.7111 22.7747 85.7111 23.596C85.7111 24.2147 85.6204 24.7747 85.4391 25.276C85.2684 25.7773 85.0177 26.204 84.6871 26.556C84.3564 26.908 83.9564 27.18 83.4871 27.372C83.0284 27.5533 82.5111 27.644 81.9351 27.644ZM81.9351 26.492C82.4044 26.492 82.8097 26.38 83.1511 26.156C83.5031 25.932 83.7697 25.6067 83.9511 25.18C84.1431 24.7533 84.2391 24.2253 84.2391 23.596C84.2391 22.6573 84.0311 21.9427 83.6151 21.452C83.1991 20.9613 82.6391 20.716 81.9351 20.716C81.4764 20.716 81.0711 20.828 80.7191 21.052C80.3777 21.2653 80.1111 21.5853 79.9191 22.012C79.7271 22.4387 79.6311 22.9667 79.6311 23.596C79.6311 24.5347 79.8391 25.2547 80.2551 25.756C80.6817 26.2467 81.2417 26.492 81.9351 26.492ZM90.2192 27.612C90.0165 27.612 89.8405 27.564 89.6912 27.468C89.5419 27.3613 89.4245 27.1907 89.3392 26.956L86.9552 20.604C86.8805 20.4013 86.8592 20.2253 86.8912 20.076C86.9232 19.9267 86.9979 19.8093 87.1152 19.724C87.2325 19.6387 87.3872 19.596 87.5792 19.596C87.7605 19.596 87.9045 19.6387 88.0112 19.724C88.1179 19.8093 88.2085 19.964 88.2832 20.188L90.4592 26.332H90.0752L92.3152 20.156C92.3899 19.964 92.4859 19.8253 92.6032 19.74C92.7312 19.644 92.8859 19.596 93.0672 19.596C93.2592 19.596 93.4192 19.644 93.5472 19.74C93.6752 19.8253 93.7659 19.964 93.8192 20.156L96.0272 26.332H95.6592L97.8672 20.156C97.9419 19.9427 98.0379 19.7987 98.1552 19.724C98.2725 19.6387 98.4165 19.596 98.5872 19.596C98.7792 19.596 98.9232 19.644 99.0192 19.74C99.1152 19.836 99.1685 19.964 99.1792 20.124C99.2005 20.2733 99.1792 20.4333 99.1152 20.604L96.7312 26.956C96.6565 27.18 96.5392 27.3453 96.3792 27.452C96.2299 27.5587 96.0539 27.612 95.8512 27.612C95.6485 27.612 95.4672 27.5587 95.3072 27.452C95.1579 27.3453 95.0405 27.18 94.9552 26.956L92.6672 20.684H93.4032L91.1152 26.956C91.0299 27.18 90.9125 27.3453 90.7632 27.452C90.6139 27.5587 90.4325 27.612 90.2192 27.612Z" fill="#FCFEFF"/>
<defs>
<filter id="filter0_d_55_25626" x="0" y="0" width="156" height="52" filterUnits="userSpaceOnUse" color-interpolation-filters="sRGB">
<feFlood flood-opacity="0" result="BackgroundImageFix"/>
<feColorMatrix in="SourceAlpha" type="matrix" values="0 0 0 0 0 0 0 0 0 0 0 0 0 0 0 0 0 0 127 0" result="hardAlpha"/>
<feOffset dy="5"/>
<feGaussianBlur stdDeviation="5"/>
<feComposite in2="hardAlpha" operator="out"/>
<feColorMatrix type="matrix" values="0 0 0 0 0.937255 0 0 0 0 0.188235 0 0 0 0 0.141176 0 0 0 0.5 0"/>
<feBlend mode="normal" in2="BackgroundImageFix" result="effect1_dropShadow_55_25626"/>
<feBlend mode="normal" in="SourceGraphic" in2="effect1_dropShadow_55_25626" result="shape"/>
</filter>
<linearGradient id="paint0_linear_55_25626" x1="67.901" y1="19.1457" x2="74.1787" y2="44.4155" gradientUnits="userSpaceOnUse">
<stop stop-color="#FF4940"/>
<stop offset="1" stop-color="#FF918C"/>
</linearGradient>
<linearGradient id="paint1_linear_55_25626" x1="69.2475" y1="21.4768" x2="86.3791" y2="-22.8464" gradientUnits="userSpaceOnUse">
<stop offset="0.29035" stop-color="#FF4940"/>
<stop offset="1" stop-color="#FF918C"/>
</linearGradient>
</defs>
</svg>
