<svg width="38" height="38" viewBox="0 0 38 38" fill="none" xmlns="http://www.w3.org/2000/svg">
<path opacity="0.3" d="M25.99 24.5057C25.1081 24.4355 24.2362 24.2851 23.3844 24.0544L22.1918 25.2479C23.3944 25.659 24.6772 25.9198 26 26V24.5057H25.99ZM13.5032 12H12C12.0902 13.3238 12.3508 14.5974 12.7516 15.8109L13.9542 14.6075C13.7137 13.765 13.5633 12.8926 13.5032 12Z" fill="#3E3E3E"/>
<path d="M27 28C27.55 28 28 27.55 28 27V23.51C28 22.96 27.55 22.51 27 22.51C25.76 22.51 24.55 22.31 23.43 21.94C23.3307 21.904 23.2256 21.887 23.12 21.89C22.86 21.89 22.61 21.99 22.41 22.18L20.21 24.38C17.3754 22.9304 15.0696 20.6246 13.62 17.79L15.82 15.59C16.1 15.31 16.18 14.92 16.07 14.57C15.6907 13.4181 15.4982 12.2128 15.5 11C15.5 10.45 15.05 10 14.5 10H11C10.45 10 10 10.45 10 11C10 20.39 17.61 28 27 28ZM23.4 24.02C24.25 24.26 25.12 24.41 26 24.47V25.96C24.68 25.87 23.41 25.61 22.2 25.21L23.4 24.02ZM12.03 12H13.53C13.5954 12.8767 13.7495 13.7444 13.99 14.59L12.79 15.79C12.38 14.59 12.12 13.32 12.03 12Z" fill="#3E3E3E"/>
<circle opacity="0.3" cx="18.8996" cy="18.8996" r="15.8996" fill="#3E3E3E"/>
<path d="M19 33.4C11.062 33.4 4.6 26.938 4.6 19C4.6 11.062 11.062 4.6 19 4.6C26.938 4.6 33.4 11.062 33.4 19C33.4 26.938 26.938 33.4 19 33.4ZM19 1C16.6362 1 14.2956 1.46558 12.1117 2.37017C9.92784 3.27475 7.94353 4.60062 6.27208 6.27208C2.89642 9.64773 1 14.2261 1 19C1 23.7739 2.89642 28.3523 6.27208 31.7279C7.94353 33.3994 9.92784 34.7253 12.1117 35.6298C14.2956 36.5344 16.6362 37 19 37C23.7739 37 28.3523 35.1036 31.7279 31.7279C35.1036 28.3523 37 23.7739 37 19C37 16.6362 36.5344 14.2956 35.6298 12.1117C34.7253 9.92784 33.3994 7.94353 31.7279 6.27208C30.0565 4.60062 28.0722 3.27475 25.8883 2.37017C23.7044 1.46558 21.3638 1 19 1Z" fill="#3E3E3E"/>
</svg>
