<svg width="44" height="45" viewBox="0 0 44 45" fill="none" xmlns="http://www.w3.org/2000/svg">
<path d="M31.6362 32.7046L26.2659 38.0748L32.4731 40.5158L41.8885 42.2594L41.4002 34.1692L31.6362 32.7046Z" fill="white" fill-opacity="0.3"/>
<path d="M10.9224 4.24951H3.32037L2.41372 8.78286L6.8773 18.8956L11.6198 12.828L10.9224 4.24951Z" fill="white" fill-opacity="0.3"/>
<path d="M41.5556 31.0556C38.6222 31.0556 35.4444 30.5667 32.7556 29.5889C32.5111 29.5889 32.2667 29.5889 32.0222 29.5889C31.2889 29.5889 30.8 29.8333 30.3111 30.3222L24.9333 35.7C18.0889 32.0333 12.2222 26.4111 8.8 19.5667L14.1778 14.1889C14.9111 13.4556 15.1556 12.4778 14.6667 11.7444C13.9333 9.05556 13.4444 5.87778 13.4444 2.94444C13.4444 1.72222 12.2222 0.5 11 0.5H2.44444C1.22222 0.5 0 1.72222 0 2.94444C0 25.9222 18.5778 44.5 41.5556 44.5C42.7778 44.5 44 43.2778 44 42.0556V33.5C44 32.2778 42.7778 31.0556 41.5556 31.0556ZM4.88889 5.38889H8.55556C8.8 7.58889 9.28889 9.78889 9.77778 11.7444L6.84444 14.6778C5.86667 11.7444 5.13333 8.56667 4.88889 5.38889ZM39.1111 39.6111C35.9333 39.3667 32.7556 38.6333 29.8222 37.6556L32.7556 34.7222C34.7111 35.2111 36.9111 35.7 39.1111 35.7V39.6111Z" fill="white"/>
</svg>
