<svg width="24" height="25" viewBox="0 0 24 25" fill="none" xmlns="http://www.w3.org/2000/svg">
<path opacity="0.3" d="M12 2.68506C6.696 2.68506 2.4 6.98106 2.4 12.2851C2.4 17.5891 6.696 21.8851 12 21.8851C17.304 21.8851 21.6 17.5891 21.6 12.2851C21.6 6.98106 17.304 2.68506 12 2.68506ZM17.1 17.2651L10.8 13.4851V6.28506H12.6V12.5851L18 15.7891L17.1 17.2651Z" fill="#CFD1DC"/>
<path d="M11.988 0.285156C5.364 0.285156 0 5.66116 0 12.2852C0 18.9092 5.364 24.2852 11.988 24.2852C18.624 24.2852 24 18.9092 24 12.2852C24 5.66116 18.624 0.285156 11.988 0.285156ZM12 21.8852C6.696 21.8852 2.4 17.5892 2.4 12.2852C2.4 6.98116 6.696 2.68516 12 2.68516C17.304 2.68516 21.6 6.98116 21.6 12.2852C21.6 17.5892 17.304 21.8852 12 21.8852ZM12.6 6.28516H10.8V13.4852L17.1 17.2652L18 15.7892L12.6 12.5852V6.28516Z" fill="#CFD1DC"/>
</svg>
