<svg width="24" height="24" viewBox="0 0 24 24" fill="none" xmlns="http://www.w3.org/2000/svg">
<path opacity="0.3" d="M12.0004 2.40002C6.69639 2.40002 2.40039 6.69602 2.40039 12C2.40039 17.304 6.69639 21.6 12.0004 21.6C17.3044 21.6 21.6004 17.304 21.6004 12C21.6004 6.69602 17.3044 2.40002 12.0004 2.40002ZM17.1004 16.98L10.8004 13.2V6.00002H12.6004V12.3L18.0004 15.504L17.1004 16.98Z" fill="#0091EA"/>
<path d="M11.988 0C5.364 0 0 5.376 0 12C0 18.624 5.364 24 11.988 24C18.624 24 24 18.624 24 12C24 5.376 18.624 0 11.988 0ZM12 21.6C6.696 21.6 2.4 17.304 2.4 12C2.4 6.696 6.696 2.4 12 2.4C17.304 2.4 21.6 6.696 21.6 12C21.6 17.304 17.304 21.6 12 21.6ZM12.6 6H10.8V13.2L17.1 16.98L18 15.504L12.6 12.3V6Z" fill="#0091EA"/>
</svg>
