<svg width="62" height="42" viewBox="0 0 62 42" fill="none" xmlns="http://www.w3.org/2000/svg">
<g filter="url(#filter0_d_55_24470)">
<rect x="5" y="3" width="52" height="32" rx="16" fill="#0091EA"/>
</g>
<path d="M25.9961 24.098C25.7908 24.098 25.6321 24.042 25.5201 23.93C25.4081 23.8087 25.3521 23.6407 25.3521 23.426V14.704C25.3521 14.48 25.4081 14.312 25.5201 14.2C25.6321 14.088 25.7908 14.032 25.9961 14.032C26.2108 14.032 26.3741 14.088 26.4861 14.2C26.5981 14.312 26.6541 14.48 26.6541 14.704V23.426C26.6541 23.6407 26.5981 23.8087 26.4861 23.93C26.3834 24.042 26.2201 24.098 25.9961 24.098ZM29.4782 24.098C29.2822 24.098 29.1282 24.042 29.0162 23.93C28.9042 23.818 28.8482 23.6547 28.8482 23.44V17.728C28.8482 17.5133 28.9042 17.3547 29.0162 17.252C29.1282 17.14 29.2822 17.084 29.4782 17.084C29.6742 17.084 29.8235 17.14 29.9262 17.252C30.0382 17.3547 30.0942 17.5133 30.0942 17.728V18.876L29.9402 18.666C30.1362 18.134 30.4535 17.7327 30.8922 17.462C31.3402 17.1913 31.8488 17.056 32.4182 17.056C32.9688 17.056 33.4215 17.154 33.7762 17.35C34.1308 17.546 34.3968 17.8447 34.5742 18.246C34.7515 18.6473 34.8402 19.156 34.8402 19.772V23.44C34.8402 23.6547 34.7842 23.818 34.6722 23.93C34.5695 24.042 34.4155 24.098 34.2102 24.098C34.0048 24.098 33.8462 24.042 33.7342 23.93C33.6222 23.818 33.5662 23.6547 33.5662 23.44V19.842C33.5662 19.2353 33.4495 18.792 33.2162 18.512C32.9828 18.232 32.6095 18.092 32.0962 18.092C31.4988 18.092 31.0182 18.2787 30.6542 18.652C30.2995 19.016 30.1222 19.5107 30.1222 20.136V23.44C30.1222 23.8787 29.9075 24.098 29.4782 24.098Z" fill="#FCFEFF"/>
<defs>
<filter id="filter0_d_55_24470" x="0" y="0" width="62" height="42" filterUnits="userSpaceOnUse" color-interpolation-filters="sRGB">
<feFlood flood-opacity="0" result="BackgroundImageFix"/>
<feColorMatrix in="SourceAlpha" type="matrix" values="0 0 0 0 0 0 0 0 0 0 0 0 0 0 0 0 0 0 127 0" result="hardAlpha"/>
<feOffset dy="2"/>
<feGaussianBlur stdDeviation="2.5"/>
<feComposite in2="hardAlpha" operator="out"/>
<feColorMatrix type="matrix" values="0 0 0 0 0 0 0 0 0 0.568627 0 0 0 0 0.917647 0 0 0 0.5 0"/>
<feBlend mode="normal" in2="BackgroundImageFix" result="effect1_dropShadow_55_24470"/>
<feBlend mode="normal" in="SourceGraphic" in2="effect1_dropShadow_55_24470" result="shape"/>
</filter>
</defs>
</svg>
