<svg width="72" height="52" viewBox="0 0 72 52" fill="none" xmlns="http://www.w3.org/2000/svg">
<g filter="url(#filter0_d_55_23000)">
<rect x="10" y="5" width="52" height="32" rx="16" fill="#FCFEFF"/>
<rect x="10.5" y="5.5" width="51" height="31" rx="15.5" stroke="url(#paint0_linear_55_23000)"/>
</g>
<path d="M30.9961 26.0979C30.7908 26.0979 30.6321 26.0419 30.5201 25.9299C30.4081 25.8085 30.3521 25.6405 30.3521 25.4259V16.7039C30.3521 16.4799 30.4081 16.3119 30.5201 16.1999C30.6321 16.0879 30.7908 16.0319 30.9961 16.0319C31.2108 16.0319 31.3741 16.0879 31.4861 16.1999C31.5981 16.3119 31.6541 16.4799 31.6541 16.7039V25.4259C31.6541 25.6405 31.5981 25.8085 31.4861 25.9299C31.3834 26.0419 31.2201 26.0979 30.9961 26.0979ZM34.4782 26.0979C34.2822 26.0979 34.1282 26.0419 34.0162 25.9299C33.9042 25.8179 33.8482 25.6545 33.8482 25.4399V19.7279C33.8482 19.5132 33.9042 19.3545 34.0162 19.2519C34.1282 19.1399 34.2822 19.0839 34.4782 19.0839C34.6742 19.0839 34.8235 19.1399 34.9262 19.2519C35.0382 19.3545 35.0942 19.5132 35.0942 19.7279V20.8759L34.9402 20.6659C35.1362 20.1339 35.4535 19.7325 35.8922 19.4619C36.3402 19.1912 36.8488 19.0559 37.4182 19.0559C37.9688 19.0559 38.4215 19.1539 38.7762 19.3499C39.1308 19.5459 39.3968 19.8445 39.5742 20.2459C39.7515 20.6472 39.8402 21.1559 39.8402 21.7719V25.4399C39.8402 25.6545 39.7842 25.8179 39.6722 25.9299C39.5695 26.0419 39.4155 26.0979 39.2102 26.0979C39.0048 26.0979 38.8462 26.0419 38.7342 25.9299C38.6222 25.8179 38.5662 25.6545 38.5662 25.4399V21.8419C38.5662 21.2352 38.4495 20.7919 38.2162 20.5119C37.9828 20.2319 37.6095 20.0919 37.0962 20.0919C36.4988 20.0919 36.0182 20.2785 35.6542 20.6519C35.2995 21.0159 35.1222 21.5105 35.1222 22.1359V25.4399C35.1222 25.8785 34.9075 26.0979 34.4782 26.0979Z" fill="#656774"/>
<defs>
<filter id="filter0_d_55_23000" x="0" y="0" width="72" height="52" filterUnits="userSpaceOnUse" color-interpolation-filters="sRGB">
<feFlood flood-opacity="0" result="BackgroundImageFix"/>
<feColorMatrix in="SourceAlpha" type="matrix" values="0 0 0 0 0 0 0 0 0 0 0 0 0 0 0 0 0 0 127 0" result="hardAlpha"/>
<feOffset dy="5"/>
<feGaussianBlur stdDeviation="5"/>
<feComposite in2="hardAlpha" operator="out"/>
<feColorMatrix type="matrix" values="0 0 0 0 0 0 0 0 0 0 0 0 0 0 0 0 0 0 0.05 0"/>
<feBlend mode="normal" in2="BackgroundImageFix" result="effect1_dropShadow_55_23000"/>
<feBlend mode="normal" in="SourceGraphic" in2="effect1_dropShadow_55_23000" result="shape"/>
</filter>
<linearGradient id="paint0_linear_55_23000" x1="36" y1="5" x2="36" y2="37" gradientUnits="userSpaceOnUse">
<stop stop-color="white"/>
<stop offset="1" stop-color="#DFE2EE"/>
</linearGradient>
</defs>
</svg>
