<svg width="62" height="42" viewBox="0 0 62 42" fill="none" xmlns="http://www.w3.org/2000/svg">
<g filter="url(#filter0_d_55_24415)">
<rect x="5" y="3" width="52" height="32" rx="16" fill="#0091EA"/>
</g>
<path d="M23.5368 24.126C22.6035 24.126 21.7961 23.9207 21.1148 23.51C20.4335 23.09 19.9015 22.502 19.5188 21.746C19.1455 20.9807 18.9588 20.0847 18.9588 19.058C18.9588 18.2833 19.0661 17.588 19.2808 16.972C19.4955 16.3467 19.7988 15.8147 20.1908 15.376C20.5921 14.928 21.0728 14.5873 21.6328 14.354C22.2021 14.1207 22.8368 14.004 23.5368 14.004C24.4701 14.004 25.2775 14.2093 25.9588 14.62C26.6401 15.0307 27.1675 15.614 27.5408 16.37C27.9141 17.126 28.1008 18.0173 28.1008 19.044C28.1008 19.8187 27.9935 20.5187 27.7788 21.144C27.5641 21.7693 27.2561 22.306 26.8548 22.754C26.4628 23.202 25.9868 23.5427 25.4268 23.776C24.8668 24.0093 24.2368 24.126 23.5368 24.126ZM23.5368 22.978C24.2088 22.978 24.7828 22.824 25.2588 22.516C25.7348 22.208 26.0988 21.76 26.3508 21.172C26.6121 20.584 26.7428 19.8793 26.7428 19.058C26.7428 17.8167 26.4628 16.8553 25.9028 16.174C25.3521 15.4927 24.5635 15.152 23.5368 15.152C22.8648 15.152 22.2861 15.306 21.8008 15.614C21.3248 15.9127 20.9608 16.356 20.7088 16.944C20.4568 17.5227 20.3308 18.2273 20.3308 19.058C20.3308 20.29 20.6108 21.2513 21.1708 21.942C21.7308 22.6327 22.5195 22.978 23.5368 22.978ZM32.3916 24.126C31.8409 24.126 31.3789 24.0233 31.0056 23.818C30.6416 23.6127 30.3709 23.3093 30.1936 22.908C30.0163 22.5067 29.9276 22.0027 29.9276 21.396V17.728C29.9276 17.5133 29.9789 17.3547 30.0816 17.252C30.1936 17.14 30.3523 17.084 30.5576 17.084C30.7629 17.084 30.9216 17.14 31.0336 17.252C31.1456 17.3547 31.2016 17.5133 31.2016 17.728V21.396C31.2016 21.9747 31.3183 22.404 31.5516 22.684C31.7849 22.9547 32.1536 23.09 32.6576 23.09C33.2176 23.09 33.6703 22.9033 34.0156 22.53C34.3703 22.1567 34.5476 21.662 34.5476 21.046V17.728C34.5476 17.5133 34.5989 17.3547 34.7016 17.252C34.8136 17.14 34.9723 17.084 35.1776 17.084C35.3829 17.084 35.5416 17.14 35.6536 17.252C35.7656 17.3547 35.8216 17.5133 35.8216 17.728V23.44C35.8216 23.8787 35.6163 24.098 35.2056 24.098C35.0003 24.098 34.8416 24.042 34.7296 23.93C34.6269 23.818 34.5756 23.6547 34.5756 23.44V22.222L34.7576 22.46C34.5709 23.0013 34.2676 23.4167 33.8476 23.706C33.4369 23.986 32.9516 24.126 32.3916 24.126ZM40.6996 24.126C40.1489 24.126 39.6869 24.028 39.3136 23.832C38.9496 23.636 38.6743 23.3513 38.4876 22.978C38.3103 22.6047 38.2216 22.1473 38.2216 21.606V18.162H37.3256C37.1576 18.162 37.0269 18.12 36.9336 18.036C36.8403 17.9427 36.7936 17.8213 36.7936 17.672C36.7936 17.5133 36.8403 17.392 36.9336 17.308C37.0269 17.224 37.1576 17.182 37.3256 17.182H38.2216V15.656C38.2216 15.4413 38.2776 15.2827 38.3896 15.18C38.5016 15.068 38.6603 15.012 38.8656 15.012C39.0709 15.012 39.2249 15.068 39.3276 15.18C39.4396 15.2827 39.4956 15.4413 39.4956 15.656V17.182H41.1896C41.3669 17.182 41.5023 17.224 41.5956 17.308C41.6889 17.392 41.7356 17.5133 41.7356 17.672C41.7356 17.8213 41.6889 17.9427 41.5956 18.036C41.5023 18.12 41.3669 18.162 41.1896 18.162H39.4956V21.494C39.4956 22.0073 39.6029 22.3947 39.8176 22.656C40.0323 22.9173 40.3869 23.048 40.8816 23.048C41.0589 23.048 41.2083 23.034 41.3296 23.006C41.4509 22.9687 41.5583 22.95 41.6516 22.95C41.7356 22.9407 41.8056 22.9687 41.8616 23.034C41.9269 23.0993 41.9596 23.2207 41.9596 23.398C41.9596 23.5287 41.9363 23.65 41.8896 23.762C41.8523 23.8647 41.7729 23.9347 41.6516 23.972C41.5396 24.0093 41.3903 24.042 41.2036 24.07C41.0169 24.1073 40.8489 24.126 40.6996 24.126Z" fill="#FCFEFF"/>
<defs>
<filter id="filter0_d_55_24415" x="0" y="0" width="62" height="42" filterUnits="userSpaceOnUse" color-interpolation-filters="sRGB">
<feFlood flood-opacity="0" result="BackgroundImageFix"/>
<feColorMatrix in="SourceAlpha" type="matrix" values="0 0 0 0 0 0 0 0 0 0 0 0 0 0 0 0 0 0 127 0" result="hardAlpha"/>
<feOffset dy="2"/>
<feGaussianBlur stdDeviation="2.5"/>
<feComposite in2="hardAlpha" operator="out"/>
<feColorMatrix type="matrix" values="0 0 0 0 0 0 0 0 0 0.568627 0 0 0 0 0.917647 0 0 0 0.5 0"/>
<feBlend mode="normal" in2="BackgroundImageFix" result="effect1_dropShadow_55_24415"/>
<feBlend mode="normal" in="SourceGraphic" in2="effect1_dropShadow_55_24415" result="shape"/>
</filter>
</defs>
</svg>
