<svg width="72" height="52" viewBox="0 0 72 52" fill="none" xmlns="http://www.w3.org/2000/svg">
<g filter="url(#filter0_d_55_23001)">
<rect x="10" y="5" width="52" height="32" rx="16" fill="#FCFEFF"/>
<rect x="10.5" y="5.5" width="51" height="31" rx="15.5" stroke="url(#paint0_linear_55_23001)"/>
</g>
<path d="M28.5368 26.1259C27.6035 26.1259 26.7961 25.9205 26.1148 25.5099C25.4335 25.0899 24.9015 24.5019 24.5188 23.7459C24.1455 22.9805 23.9588 22.0845 23.9588 21.0579C23.9588 20.2832 24.0661 19.5879 24.2808 18.9719C24.4955 18.3465 24.7988 17.8145 25.1908 17.3759C25.5921 16.9279 26.0728 16.5872 26.6328 16.3539C27.2021 16.1205 27.8368 16.0039 28.5368 16.0039C29.4701 16.0039 30.2775 16.2092 30.9588 16.6199C31.6401 17.0305 32.1675 17.6139 32.5408 18.3699C32.9141 19.1259 33.1008 20.0172 33.1008 21.0439C33.1008 21.8185 32.9935 22.5185 32.7788 23.1439C32.5641 23.7692 32.2561 24.3059 31.8548 24.7539C31.4628 25.2019 30.9868 25.5425 30.4268 25.7759C29.8668 26.0092 29.2368 26.1259 28.5368 26.1259ZM28.5368 24.9779C29.2088 24.9779 29.7828 24.8239 30.2588 24.5159C30.7348 24.2079 31.0988 23.7599 31.3508 23.1719C31.6121 22.5839 31.7428 21.8792 31.7428 21.0579C31.7428 19.8165 31.4628 18.8552 30.9028 18.1739C30.3521 17.4925 29.5635 17.1519 28.5368 17.1519C27.8648 17.1519 27.2861 17.3059 26.8008 17.6139C26.3248 17.9125 25.9608 18.3559 25.7088 18.9439C25.4568 19.5225 25.3308 20.2272 25.3308 21.0579C25.3308 22.2899 25.6108 23.2512 26.1708 23.9419C26.7308 24.6325 27.5195 24.9779 28.5368 24.9779ZM37.3916 26.1259C36.8409 26.1259 36.3789 26.0232 36.0056 25.8179C35.6416 25.6125 35.3709 25.3092 35.1936 24.9079C35.0163 24.5065 34.9276 24.0025 34.9276 23.3959V19.7279C34.9276 19.5132 34.9789 19.3545 35.0816 19.2519C35.1936 19.1399 35.3523 19.0839 35.5576 19.0839C35.7629 19.0839 35.9216 19.1399 36.0336 19.2519C36.1456 19.3545 36.2016 19.5132 36.2016 19.7279V23.3959C36.2016 23.9745 36.3183 24.4039 36.5516 24.6839C36.7849 24.9545 37.1536 25.0899 37.6576 25.0899C38.2176 25.0899 38.6703 24.9032 39.0156 24.5299C39.3703 24.1565 39.5476 23.6619 39.5476 23.0459V19.7279C39.5476 19.5132 39.5989 19.3545 39.7016 19.2519C39.8136 19.1399 39.9723 19.0839 40.1776 19.0839C40.3829 19.0839 40.5416 19.1399 40.6536 19.2519C40.7656 19.3545 40.8216 19.5132 40.8216 19.7279V25.4399C40.8216 25.8785 40.6163 26.0979 40.2056 26.0979C40.0003 26.0979 39.8416 26.0419 39.7296 25.9299C39.6269 25.8179 39.5756 25.6545 39.5756 25.4399V24.2219L39.7576 24.4599C39.5709 25.0012 39.2676 25.4165 38.8476 25.7059C38.4369 25.9859 37.9516 26.1259 37.3916 26.1259ZM45.6996 26.1259C45.1489 26.1259 44.6869 26.0279 44.3136 25.8319C43.9496 25.6359 43.6743 25.3512 43.4876 24.9779C43.3103 24.6045 43.2216 24.1472 43.2216 23.6059V20.1619H42.3256C42.1576 20.1619 42.0269 20.1199 41.9336 20.0359C41.8403 19.9425 41.7936 19.8212 41.7936 19.6719C41.7936 19.5132 41.8403 19.3919 41.9336 19.3079C42.0269 19.2239 42.1576 19.1819 42.3256 19.1819H43.2216V17.6559C43.2216 17.4412 43.2776 17.2825 43.3896 17.1799C43.5016 17.0679 43.6603 17.0119 43.8656 17.0119C44.0709 17.0119 44.2249 17.0679 44.3276 17.1799C44.4396 17.2825 44.4956 17.4412 44.4956 17.6559V19.1819H46.1896C46.3669 19.1819 46.5023 19.2239 46.5956 19.3079C46.6889 19.3919 46.7356 19.5132 46.7356 19.6719C46.7356 19.8212 46.6889 19.9425 46.5956 20.0359C46.5023 20.1199 46.3669 20.1619 46.1896 20.1619H44.4956V23.4939C44.4956 24.0072 44.6029 24.3945 44.8176 24.6559C45.0323 24.9172 45.3869 25.0479 45.8816 25.0479C46.0589 25.0479 46.2083 25.0339 46.3296 25.0059C46.4509 24.9685 46.5583 24.9499 46.6516 24.9499C46.7356 24.9405 46.8056 24.9685 46.8616 25.0339C46.9269 25.0992 46.9596 25.2205 46.9596 25.3979C46.9596 25.5285 46.9363 25.6499 46.8896 25.7619C46.8523 25.8645 46.7729 25.9345 46.6516 25.9719C46.5396 26.0092 46.3903 26.0419 46.2036 26.0699C46.0169 26.1072 45.8489 26.1259 45.6996 26.1259Z" fill="#656774"/>
<defs>
<filter id="filter0_d_55_23001" x="0" y="0" width="72" height="52" filterUnits="userSpaceOnUse" color-interpolation-filters="sRGB">
<feFlood flood-opacity="0" result="BackgroundImageFix"/>
<feColorMatrix in="SourceAlpha" type="matrix" values="0 0 0 0 0 0 0 0 0 0 0 0 0 0 0 0 0 0 127 0" result="hardAlpha"/>
<feOffset dy="5"/>
<feGaussianBlur stdDeviation="5"/>
<feComposite in2="hardAlpha" operator="out"/>
<feColorMatrix type="matrix" values="0 0 0 0 0 0 0 0 0 0 0 0 0 0 0 0 0 0 0.05 0"/>
<feBlend mode="normal" in2="BackgroundImageFix" result="effect1_dropShadow_55_23001"/>
<feBlend mode="normal" in="SourceGraphic" in2="effect1_dropShadow_55_23001" result="shape"/>
</filter>
<linearGradient id="paint0_linear_55_23001" x1="36" y1="5" x2="36" y2="37" gradientUnits="userSpaceOnUse">
<stop stop-color="white"/>
<stop offset="1" stop-color="#DFE2EE"/>
</linearGradient>
</defs>
</svg>
