<svg width="72" height="52" viewBox="0 0 72 52" fill="none" xmlns="http://www.w3.org/2000/svg">
<g filter="url(#filter0_d_55_23002)">
<rect x="10" y="5" width="52" height="32" rx="16" fill="#FCFEFF"/>
<rect x="10.5" y="5.5" width="51" height="31" rx="15.5" stroke="url(#paint0_linear_55_23002)"/>
</g>
<path d="M22.8685 26.0979C22.6818 26.0979 22.5372 26.0419 22.4345 25.9299C22.3318 25.8179 22.2805 25.6685 22.2805 25.4819V16.6479C22.2805 16.4519 22.3318 16.3025 22.4345 16.1999C22.5465 16.0879 22.6958 16.0319 22.8825 16.0319C23.0505 16.0319 23.1812 16.0645 23.2745 16.1299C23.3772 16.1952 23.4705 16.3072 23.5545 16.4659L27.3065 23.5079H26.8725L30.6245 16.4659C30.7085 16.3072 30.7972 16.1952 30.8905 16.1299C30.9838 16.0645 31.1145 16.0319 31.2825 16.0319C31.4692 16.0319 31.6138 16.0879 31.7165 16.1999C31.8192 16.3025 31.8705 16.4519 31.8705 16.6479V25.4819C31.8705 25.6685 31.8192 25.8179 31.7165 25.9299C31.6232 26.0419 31.4785 26.0979 31.2825 26.0979C31.0865 26.0979 30.9372 26.0419 30.8345 25.9299C30.7412 25.8179 30.6945 25.6685 30.6945 25.4819V17.9359H31.0025L27.6425 24.2219C27.5678 24.3432 27.4885 24.4365 27.4045 24.5019C27.3298 24.5579 27.2225 24.5859 27.0825 24.5859C26.9518 24.5859 26.8398 24.5532 26.7465 24.4879C26.6625 24.4225 26.5878 24.3339 26.5225 24.2219L23.1205 17.9219H23.4565V25.4819C23.4565 25.6685 23.4052 25.8179 23.3025 25.9299C23.2092 26.0419 23.0645 26.0979 22.8685 26.0979ZM34.7321 26.0699C34.5361 26.0699 34.3821 26.0092 34.2701 25.8879C34.1581 25.7665 34.1021 25.5985 34.1021 25.3839V19.7979C34.1021 19.5739 34.1581 19.4059 34.2701 19.2939C34.3821 19.1725 34.5361 19.1119 34.7321 19.1119C34.9374 19.1119 35.0961 19.1725 35.2081 19.2939C35.3201 19.4059 35.3761 19.5739 35.3761 19.7979V25.3839C35.3761 25.5985 35.3201 25.7665 35.2081 25.8879C35.1054 26.0092 34.9467 26.0699 34.7321 26.0699ZM34.7321 17.5999C34.4801 17.5999 34.2794 17.5345 34.1301 17.4039C33.9901 17.2639 33.9201 17.0819 33.9201 16.8579C33.9201 16.6152 33.9901 16.4332 34.1301 16.3119C34.2794 16.1812 34.4801 16.1159 34.7321 16.1159C35.0027 16.1159 35.2034 16.1812 35.3341 16.3119C35.4741 16.4332 35.5441 16.6152 35.5441 16.8579C35.5441 17.0819 35.4741 17.2639 35.3341 17.4039C35.2034 17.5345 35.0027 17.5999 34.7321 17.5999ZM39.7763 26.1259C39.3563 26.1259 38.9317 26.0792 38.5023 25.9859C38.0823 25.8832 37.6857 25.7105 37.3123 25.4679C37.2097 25.4025 37.135 25.3232 37.0883 25.2299C37.051 25.1272 37.037 25.0292 37.0463 24.9359C37.065 24.8332 37.107 24.7445 37.1723 24.6699C37.2377 24.5952 37.317 24.5532 37.4103 24.5439C37.513 24.5252 37.6203 24.5485 37.7323 24.6139C38.0963 24.8192 38.4463 24.9639 38.7823 25.0479C39.1277 25.1319 39.4683 25.1739 39.8043 25.1739C40.3177 25.1739 40.705 25.0805 40.9663 24.8939C41.2277 24.7072 41.3583 24.4599 41.3583 24.1519C41.3583 23.8905 41.2697 23.6899 41.0923 23.5499C40.9243 23.4005 40.6583 23.2885 40.2943 23.2139L38.9923 22.9479C38.4137 22.8172 37.975 22.6025 37.6763 22.3039C37.387 21.9959 37.2423 21.6039 37.2423 21.1279C37.2423 20.7079 37.3543 20.3439 37.5783 20.0359C37.8117 19.7185 38.1337 19.4759 38.5443 19.3079C38.955 19.1399 39.4263 19.0559 39.9583 19.0559C40.369 19.0559 40.7563 19.1119 41.1203 19.2239C41.4937 19.3265 41.8297 19.4852 42.1283 19.6999C42.2403 19.7652 42.3103 19.8492 42.3383 19.9519C42.3757 20.0452 42.3803 20.1432 42.3523 20.2459C42.3337 20.3392 42.2917 20.4185 42.2263 20.4839C42.161 20.5492 42.077 20.5912 41.9743 20.6099C41.8717 20.6192 41.7597 20.5912 41.6383 20.5259C41.3677 20.3392 41.0877 20.2085 40.7983 20.1339C40.5183 20.0499 40.2383 20.0079 39.9583 20.0079C39.4543 20.0079 39.0717 20.1059 38.8103 20.3019C38.5583 20.4979 38.4323 20.7545 38.4323 21.0719C38.4323 21.3145 38.507 21.5152 38.6563 21.6739C38.815 21.8325 39.0623 21.9492 39.3983 22.0239L40.7003 22.2899C41.307 22.4205 41.7643 22.6305 42.0723 22.9199C42.3803 23.1999 42.5343 23.5825 42.5343 24.0679C42.5343 24.7025 42.2823 25.2065 41.7783 25.5799C41.2837 25.9439 40.6163 26.1259 39.7763 26.1259ZM46.5439 26.1259C46.1239 26.1259 45.6993 26.0792 45.2699 25.9859C44.8499 25.8832 44.4533 25.7105 44.0799 25.4679C43.9773 25.4025 43.9026 25.3232 43.8559 25.2299C43.8186 25.1272 43.8046 25.0292 43.8139 24.9359C43.8326 24.8332 43.8746 24.7445 43.9399 24.6699C44.0053 24.5952 44.0846 24.5532 44.1779 24.5439C44.2806 24.5252 44.3879 24.5485 44.4999 24.6139C44.8639 24.8192 45.2139 24.9639 45.5499 25.0479C45.8953 25.1319 46.2359 25.1739 46.5719 25.1739C47.0853 25.1739 47.4726 25.0805 47.7339 24.8939C47.9953 24.7072 48.1259 24.4599 48.1259 24.1519C48.1259 23.8905 48.0373 23.6899 47.8599 23.5499C47.6919 23.4005 47.4259 23.2885 47.0619 23.2139L45.7599 22.9479C45.1813 22.8172 44.7426 22.6025 44.4439 22.3039C44.1546 21.9959 44.0099 21.6039 44.0099 21.1279C44.0099 20.7079 44.1219 20.3439 44.3459 20.0359C44.5793 19.7185 44.9013 19.4759 45.3119 19.3079C45.7226 19.1399 46.1939 19.0559 46.7259 19.0559C47.1366 19.0559 47.5239 19.1119 47.8879 19.2239C48.2613 19.3265 48.5973 19.4852 48.8959 19.6999C49.0079 19.7652 49.0779 19.8492 49.1059 19.9519C49.1433 20.0452 49.1479 20.1432 49.1199 20.2459C49.1013 20.3392 49.0593 20.4185 48.9939 20.4839C48.9286 20.5492 48.8446 20.5912 48.7419 20.6099C48.6393 20.6192 48.5273 20.5912 48.4059 20.5259C48.1353 20.3392 47.8553 20.2085 47.5659 20.1339C47.2859 20.0499 47.0059 20.0079 46.7259 20.0079C46.2219 20.0079 45.8393 20.1059 45.5779 20.3019C45.3259 20.4979 45.1999 20.7545 45.1999 21.0719C45.1999 21.3145 45.2746 21.5152 45.4239 21.6739C45.5826 21.8325 45.8299 21.9492 46.1659 22.0239L47.4679 22.2899C48.0746 22.4205 48.5319 22.6305 48.8399 22.9199C49.1479 23.1999 49.3019 23.5825 49.3019 24.0679C49.3019 24.7025 49.0499 25.2065 48.5459 25.5799C48.0513 25.9439 47.3839 26.1259 46.5439 26.1259Z" fill="#656774"/>
<defs>
<filter id="filter0_d_55_23002" x="0" y="0" width="72" height="52" filterUnits="userSpaceOnUse" color-interpolation-filters="sRGB">
<feFlood flood-opacity="0" result="BackgroundImageFix"/>
<feColorMatrix in="SourceAlpha" type="matrix" values="0 0 0 0 0 0 0 0 0 0 0 0 0 0 0 0 0 0 127 0" result="hardAlpha"/>
<feOffset dy="5"/>
<feGaussianBlur stdDeviation="5"/>
<feComposite in2="hardAlpha" operator="out"/>
<feColorMatrix type="matrix" values="0 0 0 0 0 0 0 0 0 0 0 0 0 0 0 0 0 0 0.05 0"/>
<feBlend mode="normal" in2="BackgroundImageFix" result="effect1_dropShadow_55_23002"/>
<feBlend mode="normal" in="SourceGraphic" in2="effect1_dropShadow_55_23002" result="shape"/>
</filter>
<linearGradient id="paint0_linear_55_23002" x1="36" y1="5" x2="36" y2="37" gradientUnits="userSpaceOnUse">
<stop stop-color="white"/>
<stop offset="1" stop-color="#DFE2EE"/>
</linearGradient>
</defs>
</svg>
