<svg width="62" height="42" viewBox="0 0 62 42" fill="none" xmlns="http://www.w3.org/2000/svg">
<g filter="url(#filter0_d_55_24444)">
<rect x="5" y="3" width="52" height="32" rx="16" fill="#0091EA"/>
</g>
<path d="M17.8685 24.098C17.6818 24.098 17.5372 24.042 17.4345 23.93C17.3318 23.818 17.2805 23.6687 17.2805 23.482V14.648C17.2805 14.452 17.3318 14.3027 17.4345 14.2C17.5465 14.088 17.6958 14.032 17.8825 14.032C18.0505 14.032 18.1812 14.0647 18.2745 14.13C18.3772 14.1953 18.4705 14.3073 18.5545 14.466L22.3065 21.508H21.8725L25.6245 14.466C25.7085 14.3073 25.7972 14.1953 25.8905 14.13C25.9838 14.0647 26.1145 14.032 26.2825 14.032C26.4692 14.032 26.6138 14.088 26.7165 14.2C26.8192 14.3027 26.8705 14.452 26.8705 14.648V23.482C26.8705 23.6687 26.8192 23.818 26.7165 23.93C26.6232 24.042 26.4785 24.098 26.2825 24.098C26.0865 24.098 25.9372 24.042 25.8345 23.93C25.7412 23.818 25.6945 23.6687 25.6945 23.482V15.936H26.0025L22.6425 22.222C22.5678 22.3433 22.4885 22.4367 22.4045 22.502C22.3298 22.558 22.2225 22.586 22.0825 22.586C21.9518 22.586 21.8398 22.5533 21.7465 22.488C21.6625 22.4227 21.5878 22.334 21.5225 22.222L18.1205 15.922H18.4565V23.482C18.4565 23.6687 18.4052 23.818 18.3025 23.93C18.2092 24.042 18.0645 24.098 17.8685 24.098ZM29.7321 24.07C29.5361 24.07 29.3821 24.0093 29.2701 23.888C29.1581 23.7667 29.1021 23.5987 29.1021 23.384V17.798C29.1021 17.574 29.1581 17.406 29.2701 17.294C29.3821 17.1727 29.5361 17.112 29.7321 17.112C29.9374 17.112 30.0961 17.1727 30.2081 17.294C30.3201 17.406 30.3761 17.574 30.3761 17.798V23.384C30.3761 23.5987 30.3201 23.7667 30.2081 23.888C30.1054 24.0093 29.9467 24.07 29.7321 24.07ZM29.7321 15.6C29.4801 15.6 29.2794 15.5347 29.1301 15.404C28.9901 15.264 28.9201 15.082 28.9201 14.858C28.9201 14.6153 28.9901 14.4333 29.1301 14.312C29.2794 14.1813 29.4801 14.116 29.7321 14.116C30.0027 14.116 30.2034 14.1813 30.3341 14.312C30.4741 14.4333 30.5441 14.6153 30.5441 14.858C30.5441 15.082 30.4741 15.264 30.3341 15.404C30.2034 15.5347 30.0027 15.6 29.7321 15.6ZM34.7763 24.126C34.3563 24.126 33.9317 24.0793 33.5023 23.986C33.0823 23.8833 32.6857 23.7107 32.3123 23.468C32.2097 23.4027 32.135 23.3233 32.0883 23.23C32.051 23.1273 32.037 23.0293 32.0463 22.936C32.065 22.8333 32.107 22.7447 32.1723 22.67C32.2377 22.5953 32.317 22.5533 32.4103 22.544C32.513 22.5253 32.6203 22.5487 32.7323 22.614C33.0963 22.8193 33.4463 22.964 33.7823 23.048C34.1277 23.132 34.4683 23.174 34.8043 23.174C35.3177 23.174 35.705 23.0807 35.9663 22.894C36.2277 22.7073 36.3583 22.46 36.3583 22.152C36.3583 21.8907 36.2697 21.69 36.0923 21.55C35.9243 21.4007 35.6583 21.2887 35.2943 21.214L33.9923 20.948C33.4137 20.8173 32.975 20.6027 32.6763 20.304C32.387 19.996 32.2423 19.604 32.2423 19.128C32.2423 18.708 32.3543 18.344 32.5783 18.036C32.8117 17.7187 33.1337 17.476 33.5443 17.308C33.955 17.14 34.4263 17.056 34.9583 17.056C35.369 17.056 35.7563 17.112 36.1203 17.224C36.4937 17.3267 36.8297 17.4853 37.1283 17.7C37.2403 17.7653 37.3103 17.8493 37.3383 17.952C37.3757 18.0453 37.3803 18.1433 37.3523 18.246C37.3337 18.3393 37.2917 18.4187 37.2263 18.484C37.161 18.5493 37.077 18.5913 36.9743 18.61C36.8717 18.6193 36.7597 18.5913 36.6383 18.526C36.3677 18.3393 36.0877 18.2087 35.7983 18.134C35.5183 18.05 35.2383 18.008 34.9583 18.008C34.4543 18.008 34.0717 18.106 33.8103 18.302C33.5583 18.498 33.4323 18.7547 33.4323 19.072C33.4323 19.3147 33.507 19.5153 33.6563 19.674C33.815 19.8327 34.0623 19.9493 34.3983 20.024L35.7003 20.29C36.307 20.4207 36.7643 20.6307 37.0723 20.92C37.3803 21.2 37.5343 21.5827 37.5343 22.068C37.5343 22.7027 37.2823 23.2067 36.7783 23.58C36.2837 23.944 35.6163 24.126 34.7763 24.126ZM41.5439 24.126C41.1239 24.126 40.6993 24.0793 40.2699 23.986C39.8499 23.8833 39.4533 23.7107 39.0799 23.468C38.9773 23.4027 38.9026 23.3233 38.8559 23.23C38.8186 23.1273 38.8046 23.0293 38.8139 22.936C38.8326 22.8333 38.8746 22.7447 38.9399 22.67C39.0053 22.5953 39.0846 22.5533 39.1779 22.544C39.2806 22.5253 39.3879 22.5487 39.4999 22.614C39.8639 22.8193 40.2139 22.964 40.5499 23.048C40.8953 23.132 41.2359 23.174 41.5719 23.174C42.0853 23.174 42.4726 23.0807 42.7339 22.894C42.9953 22.7073 43.1259 22.46 43.1259 22.152C43.1259 21.8907 43.0373 21.69 42.8599 21.55C42.6919 21.4007 42.4259 21.2887 42.0619 21.214L40.7599 20.948C40.1813 20.8173 39.7426 20.6027 39.4439 20.304C39.1546 19.996 39.0099 19.604 39.0099 19.128C39.0099 18.708 39.1219 18.344 39.3459 18.036C39.5793 17.7187 39.9013 17.476 40.3119 17.308C40.7226 17.14 41.1939 17.056 41.7259 17.056C42.1366 17.056 42.5239 17.112 42.8879 17.224C43.2613 17.3267 43.5973 17.4853 43.8959 17.7C44.0079 17.7653 44.0779 17.8493 44.1059 17.952C44.1433 18.0453 44.1479 18.1433 44.1199 18.246C44.1013 18.3393 44.0593 18.4187 43.9939 18.484C43.9286 18.5493 43.8446 18.5913 43.7419 18.61C43.6393 18.6193 43.5273 18.5913 43.4059 18.526C43.1353 18.3393 42.8553 18.2087 42.5659 18.134C42.2859 18.05 42.0059 18.008 41.7259 18.008C41.2219 18.008 40.8393 18.106 40.5779 18.302C40.3259 18.498 40.1999 18.7547 40.1999 19.072C40.1999 19.3147 40.2746 19.5153 40.4239 19.674C40.5826 19.8327 40.8299 19.9493 41.1659 20.024L42.4679 20.29C43.0746 20.4207 43.5319 20.6307 43.8399 20.92C44.1479 21.2 44.3019 21.5827 44.3019 22.068C44.3019 22.7027 44.0499 23.2067 43.5459 23.58C43.0513 23.944 42.3839 24.126 41.5439 24.126Z" fill="#FCFEFF"/>
<defs>
<filter id="filter0_d_55_24444" x="0" y="0" width="62" height="42" filterUnits="userSpaceOnUse" color-interpolation-filters="sRGB">
<feFlood flood-opacity="0" result="BackgroundImageFix"/>
<feColorMatrix in="SourceAlpha" type="matrix" values="0 0 0 0 0 0 0 0 0 0 0 0 0 0 0 0 0 0 127 0" result="hardAlpha"/>
<feOffset dy="2"/>
<feGaussianBlur stdDeviation="2.5"/>
<feComposite in2="hardAlpha" operator="out"/>
<feColorMatrix type="matrix" values="0 0 0 0 0 0 0 0 0 0.568627 0 0 0 0 0.917647 0 0 0 0.5 0"/>
<feBlend mode="normal" in2="BackgroundImageFix" result="effect1_dropShadow_55_24444"/>
<feBlend mode="normal" in="SourceGraphic" in2="effect1_dropShadow_55_24444" result="shape"/>
</filter>
</defs>
</svg>
