<svg width="62" height="42" viewBox="0 0 62 42" fill="none" xmlns="http://www.w3.org/2000/svg">
<g filter="url(#filter0_d_55_22999)">
<rect x="5" y="3" width="52" height="32" rx="16" fill="#0091EA"/>
</g>
<path d="M22.2053 24.098C22.0373 24.098 21.9019 24.0607 21.7993 23.986C21.7059 23.9113 21.6499 23.8087 21.6313 23.678C21.6126 23.5473 21.6406 23.4027 21.7153 23.244L25.5373 14.592C25.6213 14.396 25.7286 14.256 25.8593 14.172C25.9899 14.0787 26.1346 14.032 26.2933 14.032C26.4519 14.032 26.5919 14.0787 26.7133 14.172C26.8439 14.256 26.9559 14.396 27.0493 14.592L30.8713 23.244C30.9459 23.4027 30.9739 23.552 30.9553 23.692C30.9459 23.8227 30.8946 23.9253 30.8013 24C30.7079 24.0653 30.5773 24.098 30.4093 24.098C30.2226 24.098 30.0733 24.0513 29.9613 23.958C29.8493 23.8553 29.7513 23.7107 29.6673 23.524L28.6733 21.2L29.2753 21.536H23.2833L23.8853 21.2L22.8913 23.524C22.8073 23.7293 22.7139 23.8787 22.6113 23.972C22.5086 24.056 22.3733 24.098 22.2053 24.098ZM26.2653 15.6L24.0813 20.766L23.7453 20.472H28.8133L28.4913 20.766L26.2933 15.6H26.2653ZM34.5869 24.126C33.8869 24.126 33.3549 23.9207 32.9909 23.51C32.6269 23.09 32.4449 22.488 32.4449 21.704V14.676C32.4449 14.4613 32.5009 14.3027 32.6129 14.2C32.7249 14.088 32.8789 14.032 33.0749 14.032C33.2802 14.032 33.4389 14.088 33.5509 14.2C33.6629 14.3027 33.7189 14.4613 33.7189 14.676V21.606C33.7189 22.0913 33.8169 22.4553 34.0129 22.698C34.2182 22.9313 34.5075 23.048 34.8809 23.048C34.9649 23.048 35.0395 23.048 35.1049 23.048C35.1702 23.0387 35.2355 23.0293 35.3009 23.02C35.4035 23.0107 35.4782 23.0387 35.5249 23.104C35.5715 23.1693 35.5949 23.3 35.5949 23.496C35.5949 23.6733 35.5529 23.8133 35.4689 23.916C35.3942 24.0093 35.2682 24.07 35.0909 24.098C35.0069 24.1073 34.9229 24.112 34.8389 24.112C34.7549 24.1213 34.6709 24.126 34.5869 24.126ZM38.7978 24.126C38.0978 24.126 37.5658 23.9207 37.2018 23.51C36.8378 23.09 36.6558 22.488 36.6558 21.704V14.676C36.6558 14.4613 36.7118 14.3027 36.8238 14.2C36.9358 14.088 37.0898 14.032 37.2858 14.032C37.4911 14.032 37.6498 14.088 37.7618 14.2C37.8738 14.3027 37.9298 14.4613 37.9298 14.676V21.606C37.9298 22.0913 38.0278 22.4553 38.2238 22.698C38.4291 22.9313 38.7185 23.048 39.0918 23.048C39.1758 23.048 39.2505 23.048 39.3158 23.048C39.3811 23.0387 39.4465 23.0293 39.5118 23.02C39.6145 23.0107 39.6891 23.0387 39.7358 23.104C39.7825 23.1693 39.8058 23.3 39.8058 23.496C39.8058 23.6733 39.7638 23.8133 39.6798 23.916C39.6051 24.0093 39.4791 24.07 39.3018 24.098C39.2178 24.1073 39.1338 24.112 39.0498 24.112C38.9658 24.1213 38.8818 24.126 38.7978 24.126Z" fill="#FCFEFF"/>
<defs>
<filter id="filter0_d_55_22999" x="0" y="0" width="62" height="42" filterUnits="userSpaceOnUse" color-interpolation-filters="sRGB">
<feFlood flood-opacity="0" result="BackgroundImageFix"/>
<feColorMatrix in="SourceAlpha" type="matrix" values="0 0 0 0 0 0 0 0 0 0 0 0 0 0 0 0 0 0 127 0" result="hardAlpha"/>
<feOffset dy="2"/>
<feGaussianBlur stdDeviation="2.5"/>
<feComposite in2="hardAlpha" operator="out"/>
<feColorMatrix type="matrix" values="0 0 0 0 0 0 0 0 0 0.568627 0 0 0 0 0.917647 0 0 0 0.5 0"/>
<feBlend mode="normal" in2="BackgroundImageFix" result="effect1_dropShadow_55_22999"/>
<feBlend mode="normal" in="SourceGraphic" in2="effect1_dropShadow_55_22999" result="shape"/>
</filter>
</defs>
</svg>
