<svg width="72" height="52" viewBox="0 0 72 52" fill="none" xmlns="http://www.w3.org/2000/svg">
<g filter="url(#filter0_d_14_28423)">
<rect x="10" y="5" width="52" height="32" rx="16" fill="#FCFEFF"/>
<rect x="10.5" y="5.5" width="51" height="31" rx="15.5" stroke="url(#paint0_linear_14_28423)"/>
</g>
<path d="M27.2053 26.0979C27.0373 26.0979 26.9019 26.0605 26.7993 25.9859C26.7059 25.9112 26.6499 25.8085 26.6313 25.6779C26.6126 25.5472 26.6406 25.4025 26.7153 25.2439L30.5373 16.5919C30.6213 16.3959 30.7286 16.2559 30.8593 16.1719C30.9899 16.0785 31.1346 16.0319 31.2933 16.0319C31.4519 16.0319 31.5919 16.0785 31.7133 16.1719C31.8439 16.2559 31.9559 16.3959 32.0493 16.5919L35.8713 25.2439C35.9459 25.4025 35.9739 25.5519 35.9553 25.6919C35.9459 25.8225 35.8946 25.9252 35.8013 25.9999C35.7079 26.0652 35.5773 26.0979 35.4093 26.0979C35.2226 26.0979 35.0733 26.0512 34.9613 25.9579C34.8493 25.8552 34.7513 25.7105 34.6673 25.5239L33.6733 23.1999L34.2753 23.5359H28.2833L28.8853 23.1999L27.8913 25.5239C27.8073 25.7292 27.7139 25.8785 27.6113 25.9719C27.5086 26.0559 27.3733 26.0979 27.2053 26.0979ZM31.2653 17.5999L29.0813 22.7659L28.7453 22.4719H33.8133L33.4913 22.7659L31.2933 17.5999H31.2653ZM39.5869 26.1259C38.8869 26.1259 38.3549 25.9205 37.9909 25.5099C37.6269 25.0899 37.4449 24.4879 37.4449 23.7039V16.6759C37.4449 16.4612 37.5009 16.3025 37.6129 16.1999C37.7249 16.0879 37.8789 16.0319 38.0749 16.0319C38.2802 16.0319 38.4389 16.0879 38.5509 16.1999C38.6629 16.3025 38.7189 16.4612 38.7189 16.6759V23.6059C38.7189 24.0912 38.8169 24.4552 39.0129 24.6979C39.2182 24.9312 39.5075 25.0479 39.8809 25.0479C39.9649 25.0479 40.0395 25.0479 40.1049 25.0479C40.1702 25.0385 40.2355 25.0292 40.3009 25.0199C40.4035 25.0105 40.4782 25.0385 40.5249 25.1039C40.5715 25.1692 40.5949 25.2999 40.5949 25.4959C40.5949 25.6732 40.5529 25.8132 40.4689 25.9159C40.3942 26.0092 40.2682 26.0699 40.0909 26.0979C40.0069 26.1072 39.9229 26.1119 39.8389 26.1119C39.7549 26.1212 39.6709 26.1259 39.5869 26.1259ZM43.7978 26.1259C43.0978 26.1259 42.5658 25.9205 42.2018 25.5099C41.8378 25.0899 41.6558 24.4879 41.6558 23.7039V16.6759C41.6558 16.4612 41.7118 16.3025 41.8238 16.1999C41.9358 16.0879 42.0898 16.0319 42.2858 16.0319C42.4911 16.0319 42.6498 16.0879 42.7618 16.1999C42.8738 16.3025 42.9298 16.4612 42.9298 16.6759V23.6059C42.9298 24.0912 43.0278 24.4552 43.2238 24.6979C43.4291 24.9312 43.7185 25.0479 44.0918 25.0479C44.1758 25.0479 44.2505 25.0479 44.3158 25.0479C44.3811 25.0385 44.4465 25.0292 44.5118 25.0199C44.6145 25.0105 44.6891 25.0385 44.7358 25.1039C44.7825 25.1692 44.8058 25.2999 44.8058 25.4959C44.8058 25.6732 44.7638 25.8132 44.6798 25.9159C44.6051 26.0092 44.4791 26.0699 44.3018 26.0979C44.2178 26.1072 44.1338 26.1119 44.0498 26.1119C43.9658 26.1212 43.8818 26.1259 43.7978 26.1259Z" fill="#656774"/>
<defs>
<filter id="filter0_d_14_28423" x="0" y="0" width="72" height="52" filterUnits="userSpaceOnUse" color-interpolation-filters="sRGB">
<feFlood flood-opacity="0" result="BackgroundImageFix"/>
<feColorMatrix in="SourceAlpha" type="matrix" values="0 0 0 0 0 0 0 0 0 0 0 0 0 0 0 0 0 0 127 0" result="hardAlpha"/>
<feOffset dy="5"/>
<feGaussianBlur stdDeviation="5"/>
<feComposite in2="hardAlpha" operator="out"/>
<feColorMatrix type="matrix" values="0 0 0 0 0 0 0 0 0 0 0 0 0 0 0 0 0 0 0.05 0"/>
<feBlend mode="normal" in2="BackgroundImageFix" result="effect1_dropShadow_14_28423"/>
<feBlend mode="normal" in="SourceGraphic" in2="effect1_dropShadow_14_28423" result="shape"/>
</filter>
<linearGradient id="paint0_linear_14_28423" x1="36" y1="5" x2="36" y2="37" gradientUnits="userSpaceOnUse">
<stop stop-color="white"/>
<stop offset="1" stop-color="#DFE2EE"/>
</linearGradient>
</defs>
</svg>
