<svg width="24" height="24" viewBox="0 0 24 24" fill="none" xmlns="http://www.w3.org/2000/svg">
<path opacity="0.3" d="M2.66602 21.3333H21.3327V2.66663H2.66602V21.3333ZM11.9993 3.99996C14.1993 3.99996 15.9993 5.79996 15.9993 7.99996C15.9993 10.2 14.1993 12 11.9993 12C9.79935 12 7.99935 10.2 7.99935 7.99996C7.99935 5.79996 9.79935 3.99996 11.9993 3.99996ZM3.99935 17.96C3.99935 14.6266 9.29268 13.1866 11.9993 13.1866C14.706 13.1866 19.9993 14.6266 19.9993 17.96V20H3.99935V17.96Z" fill="#0091EA"/>
<path d="M12 12C14.2 12 16 10.2 16 8C16 5.8 14.2 4 12 4C9.8 4 8 5.8 8 8C8 10.2 9.8 12 12 12ZM12 6.66667C12.7333 6.66667 13.3333 7.26667 13.3333 8C13.3333 8.73333 12.7333 9.33333 12 9.33333C11.2667 9.33333 10.6667 8.73333 10.6667 8C10.6667 7.26667 11.2667 6.66667 12 6.66667ZM21.3333 0H2.66667C1.18667 0 0 1.2 0 2.66667V21.3333C0 22.8 1.18667 24 2.66667 24H21.3333C22.8 24 24 22.8 24 21.3333V2.66667C24 1.2 22.8 0 21.3333 0ZM21.3333 21.3333H2.66667V2.66667H21.3333V21.3333ZM20 17.96C20 14.6267 14.7067 13.1867 12 13.1867C9.29333 13.1867 4 14.6267 4 17.96V20H20V17.96ZM7.08 17.3333C8 16.5867 10.2533 15.84 12 15.84C13.7467 15.84 16.0133 16.5867 16.92 17.3333H7.08Z" fill="#0091EA"/>
</svg>
