<svg width="24" height="25" viewBox="0 0 24 25" fill="none" xmlns="http://www.w3.org/2000/svg">
<path opacity="0.3" d="M2.66666 21.6186H21.3333V2.9519H2.66666V21.6186ZM12 4.28524C14.2 4.28524 16 6.08524 16 8.28524C16 10.4852 14.2 12.2852 12 12.2852C9.8 12.2852 8 10.4852 8 8.28524C8 6.08524 9.8 4.28524 12 4.28524ZM4 18.2452C4 14.9119 9.29333 13.4719 12 13.4719C14.7067 13.4719 20 14.9119 20 18.2452V20.2852H4V18.2452Z" fill="#CFD1DC"/>
<path d="M12 12.2852C14.2 12.2852 16 10.4852 16 8.28516C16 6.08516 14.2 4.28516 12 4.28516C9.8 4.28516 8 6.08516 8 8.28516C8 10.4852 9.8 12.2852 12 12.2852ZM12 6.95182C12.7333 6.95182 13.3333 7.55182 13.3333 8.28516C13.3333 9.01849 12.7333 9.61849 12 9.61849C11.2667 9.61849 10.6667 9.01849 10.6667 8.28516C10.6667 7.55182 11.2667 6.95182 12 6.95182ZM21.3333 0.285156H2.66667C1.18667 0.285156 0 1.48516 0 2.95182V21.6185C0 23.0852 1.18667 24.2852 2.66667 24.2852H21.3333C22.8 24.2852 24 23.0852 24 21.6185V2.95182C24 1.48516 22.8 0.285156 21.3333 0.285156ZM21.3333 21.6185H2.66667V2.95182H21.3333V21.6185ZM20 18.2452C20 14.9118 14.7067 13.4718 12 13.4718C9.29333 13.4718 4 14.9118 4 18.2452V20.2852H20V18.2452ZM7.08 17.6185C8 16.8718 10.2533 16.1252 12 16.1252C13.7467 16.1252 16.0133 16.8718 16.92 17.6185H7.08Z" fill="#CFD1DC"/>
</svg>
