<svg width="42" height="42" viewBox="0 0 42 42" fill="none" xmlns="http://www.w3.org/2000/svg">
<g filter="url(#filter0_d_55_24704)">
<rect x="5" y="1" width="32" height="32" rx="14" fill="#0091EA"/>
</g>
<rect opacity="0.3" x="14.2988" y="9.24249" width="12.9707" height="16.5449" fill="#FCFEFF"/>
<path d="M17.6669 7V8.11111H12.1113V10.3333H13.2224V24.7778C13.2224 25.3671 13.4566 25.9324 13.8733 26.3491C14.2901 26.7659 14.8553 27 15.4447 27H26.5558C27.1451 27 27.7104 26.7659 28.1271 26.3491C28.5439 25.9324 28.778 25.3671 28.778 24.7778V10.3333H29.8891V8.11111H24.3335V7H17.6669ZM15.4447 10.3333H26.5558V24.7778H15.4447V10.3333ZM17.6669 12.5556V22.5556H19.8891V12.5556H17.6669ZM22.1113 12.5556V22.5556H24.3335V12.5556H22.1113Z" fill="#FCFEFF"/>
<defs>
<filter id="filter0_d_55_24704" x="0" y="0" width="42" height="42" filterUnits="userSpaceOnUse" color-interpolation-filters="sRGB">
<feFlood flood-opacity="0" result="BackgroundImageFix"/>
<feColorMatrix in="SourceAlpha" type="matrix" values="0 0 0 0 0 0 0 0 0 0 0 0 0 0 0 0 0 0 127 0" result="hardAlpha"/>
<feOffset dy="4"/>
<feGaussianBlur stdDeviation="2.5"/>
<feComposite in2="hardAlpha" operator="out"/>
<feColorMatrix type="matrix" values="0 0 0 0 0 0 0 0 0 0.568627 0 0 0 0 0.917647 0 0 0 0.45 0"/>
<feBlend mode="normal" in2="BackgroundImageFix" result="effect1_dropShadow_55_24704"/>
<feBlend mode="normal" in="SourceGraphic" in2="effect1_dropShadow_55_24704" result="shape"/>
</filter>
</defs>
</svg>
