<svg width="156" height="52" viewBox="0 0 156 52" fill="none" xmlns="http://www.w3.org/2000/svg">
<g filter="url(#filter0_d_55_25627)">
<rect x="10" y="5" width="136" height="32" rx="15" fill="url(#paint0_linear_55_25627)"/>
</g>
<path d="M61.2166 27.5C60.9606 27.5 60.7633 27.4307 60.6246 27.292C60.486 27.1533 60.4166 26.956 60.4166 26.7V17.02C60.4166 16.764 60.486 16.5667 60.6246 16.428C60.7633 16.2893 60.9606 16.22 61.2166 16.22H64.3046C66.15 16.22 67.5686 16.7053 68.5606 17.676C69.5633 18.636 70.0646 20.028 70.0646 21.852C70.0646 22.7587 69.9366 23.564 69.6806 24.268C69.4246 24.972 69.0513 25.564 68.5606 26.044C68.07 26.5133 67.4673 26.876 66.7526 27.132C66.0486 27.3773 65.2326 27.5 64.3046 27.5H61.2166ZM61.9046 26.236H64.2086C64.934 26.236 65.5633 26.1453 66.0966 25.964C66.63 25.7827 67.0726 25.5107 67.4246 25.148C67.7873 24.7853 68.0593 24.332 68.2406 23.788C68.422 23.2333 68.5126 22.588 68.5126 21.852C68.5126 20.3907 68.15 19.2973 67.4246 18.572C66.71 17.8467 65.638 17.484 64.2086 17.484H61.9046V26.236ZM75.7778 27.644C74.9351 27.644 74.2098 27.484 73.6018 27.164C73.0044 26.8333 72.5404 26.3693 72.2098 25.772C71.8791 25.164 71.7138 24.4493 71.7138 23.628C71.7138 22.8173 71.8738 22.108 72.1938 21.5C72.5244 20.892 72.9724 20.4173 73.5378 20.076C74.1138 19.7347 74.7698 19.564 75.5058 19.564C76.0284 19.564 76.4978 19.6547 76.9138 19.836C77.3404 20.0067 77.7031 20.2573 78.0018 20.588C78.3004 20.9187 78.5244 21.324 78.6738 21.804C78.8338 22.2733 78.9138 22.8067 78.9138 23.404C78.9138 23.5747 78.8604 23.708 78.7538 23.804C78.6578 23.8893 78.5138 23.932 78.3218 23.932H72.8498V23.004H77.9538L77.6818 23.228C77.6818 22.6733 77.5964 22.204 77.4258 21.82C77.2658 21.4253 77.0258 21.1267 76.7058 20.924C76.3964 20.7213 76.0071 20.62 75.5378 20.62C75.0258 20.62 74.5884 20.7427 74.2258 20.988C73.8631 21.2227 73.5858 21.5587 73.3938 21.996C73.2018 22.4227 73.1058 22.9187 73.1058 23.484V23.58C73.1058 24.54 73.3351 25.2653 73.7938 25.756C74.2524 26.2467 74.9138 26.492 75.7778 26.492C76.1191 26.492 76.4658 26.4493 76.8178 26.364C77.1804 26.2787 77.5271 26.124 77.8578 25.9C78.0178 25.804 78.1618 25.7613 78.2898 25.772C78.4284 25.772 78.5404 25.8147 78.6258 25.9C78.7111 25.9747 78.7644 26.0707 78.7858 26.188C78.8071 26.2947 78.7911 26.412 78.7378 26.54C78.6844 26.668 78.5831 26.78 78.4338 26.876C78.0818 27.1213 77.6604 27.3133 77.1698 27.452C76.6898 27.58 76.2258 27.644 75.7778 27.644ZM81.4446 27.612C81.2206 27.612 81.0446 27.548 80.9166 27.42C80.7886 27.292 80.7246 27.1053 80.7246 26.86V20.332C80.7246 20.0867 80.7886 19.9053 80.9166 19.788C81.0446 19.66 81.2206 19.596 81.4446 19.596C81.6686 19.596 81.8393 19.66 81.9566 19.788C82.0846 19.9053 82.1486 20.0867 82.1486 20.332V21.644L81.9726 21.404C82.1966 20.796 82.5593 20.3373 83.0606 20.028C83.5726 19.7187 84.154 19.564 84.8046 19.564C85.434 19.564 85.9513 19.676 86.3566 19.9C86.762 20.124 87.066 20.4653 87.2686 20.924C87.4713 21.3827 87.5726 21.964 87.5726 22.668V26.86C87.5726 27.1053 87.5086 27.292 87.3806 27.42C87.2633 27.548 87.0873 27.612 86.8526 27.612C86.618 27.612 86.4366 27.548 86.3086 27.42C86.1806 27.292 86.1166 27.1053 86.1166 26.86V22.748C86.1166 22.0547 85.9833 21.548 85.7166 21.228C85.45 20.908 85.0233 20.748 84.4366 20.748C83.754 20.748 83.2046 20.9613 82.7886 21.388C82.3833 21.804 82.1806 22.3693 82.1806 23.084V26.86C82.1806 27.3613 81.9353 27.612 81.4446 27.612ZM91.5948 30.492C91.4241 30.492 91.2801 30.444 91.1628 30.348C91.0561 30.2627 90.9921 30.14 90.9708 29.98C90.9601 29.8307 90.9921 29.6707 91.0668 29.5L92.1548 27.036V27.644L89.1308 20.604C89.0561 20.4227 89.0294 20.2573 89.0508 20.108C89.0721 19.9587 89.1414 19.836 89.2588 19.74C89.3868 19.644 89.5574 19.596 89.7708 19.596C89.9521 19.596 90.0961 19.6387 90.2028 19.724C90.3094 19.8093 90.4108 19.9587 90.5068 20.172L93.0188 26.364H92.5708L95.1308 20.172C95.2161 19.9587 95.3174 19.8093 95.4348 19.724C95.5521 19.6387 95.7121 19.596 95.9148 19.596C96.0961 19.596 96.2348 19.644 96.3308 19.74C96.4374 19.836 96.5014 19.9587 96.5228 20.108C96.5441 20.2573 96.5121 20.4173 96.4268 20.588L92.3948 29.916C92.2881 30.14 92.1761 30.2893 92.0588 30.364C91.9521 30.4493 91.7974 30.492 91.5948 30.492Z" fill="#7E808C"/>
<defs>
<filter id="filter0_d_55_25627" x="0" y="0" width="156" height="52" filterUnits="userSpaceOnUse" color-interpolation-filters="sRGB">
<feFlood flood-opacity="0" result="BackgroundImageFix"/>
<feColorMatrix in="SourceAlpha" type="matrix" values="0 0 0 0 0 0 0 0 0 0 0 0 0 0 0 0 0 0 127 0" result="hardAlpha"/>
<feOffset dy="5"/>
<feGaussianBlur stdDeviation="5"/>
<feComposite in2="hardAlpha" operator="out"/>
<feColorMatrix type="matrix" values="0 0 0 0 0 0 0 0 0 0 0 0 0 0 0 0 0 0 0.25 0"/>
<feBlend mode="normal" in2="BackgroundImageFix" result="effect1_dropShadow_55_25627"/>
<feBlend mode="normal" in="SourceGraphic" in2="effect1_dropShadow_55_25627" result="shape"/>
</filter>
<linearGradient id="paint0_linear_55_25627" x1="78" y1="5" x2="78" y2="37" gradientUnits="userSpaceOnUse">
<stop stop-color="#F2FAFF"/>
<stop offset="1" stop-color="#F7E3E5"/>
</linearGradient>
</defs>
</svg>
