<svg width="28" height="25" viewBox="0 0 28 25" fill="none" xmlns="http://www.w3.org/2000/svg">
<g filter="url(#filter0_d_129_2301)">
<path d="M14.0656 2.99242C17.2322 2.99242 20.0562 4.77206 21.4348 7.58773C20.9418 8.60705 20.2484 9.48433 19.4212 10.1945L20.5993 11.3726C21.7606 10.3449 22.6797 9.05822 23.2562 7.58773C21.8108 3.91984 18.2431 1.32141 14.0656 1.32141C13.0045 1.32141 11.9852 1.48851 11.0243 1.79765L12.4029 3.17624C12.946 3.06762 13.4975 2.99242 14.0656 2.99242ZM15.9706 6.74386L17.7001 8.47337C17.7669 8.18929 17.817 7.88851 17.817 7.57937C17.8254 5.50731 16.1377 3.82793 14.0656 3.82793C13.7565 3.82793 13.464 3.87806 13.1716 3.9449L14.9011 5.67441C15.3857 5.88329 15.7617 6.26762 15.9706 6.74386ZM5.71886 1.21279L7.95803 3.45196C6.59615 4.52141 5.51834 5.94177 4.875 7.58773C6.32043 11.2556 9.88805 13.854 14.0656 13.854C15.3356 13.854 16.5554 13.6117 17.675 13.1689L20.5324 16.0264L21.7105 14.8483L6.89693 0.0263672L5.71886 1.21279ZM11.9852 7.47911L14.1659 9.65979C14.1324 9.66814 14.099 9.6765 14.0656 9.6765C12.9126 9.6765 11.9768 8.74073 11.9768 7.58773C11.9768 7.54595 11.9852 7.52088 11.9852 7.47911ZM9.14445 4.63838L10.6066 6.10052C10.4144 6.56005 10.3058 7.06135 10.3058 7.58773C10.3058 9.65979 11.9935 11.3475 14.0656 11.3475C14.592 11.3475 15.0933 11.2389 15.5445 11.0467L16.3633 11.8655C15.628 12.0661 14.8593 12.183 14.0656 12.183C10.899 12.183 8.075 10.4034 6.69641 7.58773C7.28127 6.39295 8.13349 5.40705 9.14445 4.63838Z" fill="#D2D4D8"/>
<path opacity="0.3" d="M14.0645 9.67626C14.0979 9.67626 14.1313 9.66791 14.1648 9.66791L11.9841 7.48723C11.9841 7.52065 11.9757 7.55407 11.9757 7.58749C11.9757 8.74049 12.9115 9.67626 14.0645 9.67626ZM14.9084 5.67417L15.9778 6.74362C15.7606 6.26738 15.3846 5.88305 14.9084 5.67417ZM21.4337 7.58749C20.0551 4.77182 17.2311 2.99219 14.0645 2.99219C13.4964 2.99219 12.9449 3.06738 12.4018 3.176L13.1705 3.94467C13.4629 3.86947 13.7554 3.8277 14.0645 3.8277C16.1366 3.8277 17.8243 5.51542 17.8243 7.58749C17.8243 7.89663 17.7742 8.18905 17.7073 8.48148L19.4201 10.1943C20.2389 9.47574 20.9324 8.59845 21.4337 7.58749ZM14.0645 12.1828C14.8582 12.1828 15.6269 12.0742 16.3622 11.8569L15.5434 11.0381C15.0922 11.2387 14.5909 11.3473 14.0645 11.3473C11.9924 11.3473 10.3047 9.65955 10.3047 7.58749C10.3047 7.06112 10.4133 6.55981 10.6055 6.10864L9.14335 4.63814C8.12403 5.39845 7.28017 6.39271 6.69531 7.57913C8.0739 10.3948 10.8979 12.1828 14.0645 12.1828Z" fill="#D2D4D8"/>
</g>
<defs>
<filter id="filter0_d_129_2301" x="0.875" y="0.0263672" width="26.3828" height="24" filterUnits="userSpaceOnUse" color-interpolation-filters="sRGB">
<feFlood flood-opacity="0" result="BackgroundImageFix"/>
<feColorMatrix in="SourceAlpha" type="matrix" values="0 0 0 0 0 0 0 0 0 0 0 0 0 0 0 0 0 0 127 0" result="hardAlpha"/>
<feOffset dy="4"/>
<feGaussianBlur stdDeviation="2"/>
<feComposite in2="hardAlpha" operator="out"/>
<feColorMatrix type="matrix" values="0 0 0 0 0 0 0 0 0 0 0 0 0 0 0 0 0 0 0.25 0"/>
<feBlend mode="normal" in2="BackgroundImageFix" result="effect1_dropShadow_129_2301"/>
<feBlend mode="normal" in="SourceGraphic" in2="effect1_dropShadow_129_2301" result="shape"/>
</filter>
</defs>
</svg>
