<svg width="24" height="25" viewBox="0 0 24 25" fill="none" xmlns="http://www.w3.org/2000/svg">
<path d="M12 6.28516C13.65 6.28516 15 4.93516 15 3.28516C15 1.63516 13.65 0.285156 12 0.285156C10.35 0.285156 9 1.63516 9 3.28516C9 4.93516 10.35 6.28516 12 6.28516ZM12 9.28516C10.35 9.28516 9 10.6352 9 12.2852C9 13.9352 10.35 15.2852 12 15.2852C13.65 15.2852 15 13.9352 15 12.2852C15 10.6352 13.65 9.28516 12 9.28516ZM12 18.2852C10.35 18.2852 9 19.6352 9 21.2852C9 22.9352 10.35 24.2852 12 24.2852C13.65 24.2852 15 22.9352 15 21.2852C15 19.6352 13.65 18.2852 12 18.2852Z" fill="#3E3E3E"/>
</svg>
