<svg width="52" height="53" viewBox="0 0 52 53" fill="none" xmlns="http://www.w3.org/2000/svg">
<rect x="20.4366" y="3.61963" width="10.4578" height="26.2859" fill="white" fill-opacity="0.3"/>
<path d="M40.2643 25.1316C40.2643 33.3421 33.1886 39.0895 25.5 39.0895C17.8114 39.0895 10.7357 33.3421 10.7357 25.1316H6C6 34.4642 13.5771 42.1821 22.7143 43.5232V52.5H28.2857V43.5232C37.4229 42.1821 45 34.4642 45 25.1316H40.2643ZM22.1571 8.43684C22.1571 6.63053 23.6614 5.15263 25.5 5.15263C27.3386 5.15263 28.8429 6.63053 28.8429 8.43684L28.815 25.4053C28.815 27.2116 27.3386 28.6895 25.5 28.6895C23.6614 28.6895 22.1571 27.2116 22.1571 25.4053V8.43684ZM25.5 33.3421C27.7165 33.3421 29.8421 32.4771 31.4094 30.9373C32.9767 29.3975 33.8571 27.3091 33.8571 25.1316V8.71053C33.8571 6.53296 32.9767 4.44458 31.4094 2.90481C29.8421 1.36504 27.7165 0.5 25.5 0.5C23.2835 0.5 21.1579 1.36504 19.5906 2.90481C18.0233 4.44458 17.1429 6.53296 17.1429 8.71053V25.1316C17.1429 27.3091 18.0233 29.3975 19.5906 30.9373C21.1579 32.4771 23.2835 33.3421 25.5 33.3421Z" fill="white"/>
</svg>
