<svg width="80" height="81" viewBox="0 0 80 81" fill="none" xmlns="http://www.w3.org/2000/svg">
<path opacity="0.3" d="M34.8571 12.7106C34.8571 9.93164 37.1714 7.65796 40 7.65796C42.8286 7.65796 45.1429 9.93164 45.1429 12.7106L45.1 38.8159C45.1 41.5948 42.8286 43.8685 40 43.8685C37.1714 43.8685 34.8571 41.5948 34.8571 38.8159V12.7106Z" fill="url(#paint0_linear_2_1688)"/>
<path d="M45.6429 12.7105V12.7113L45.6 38.8158L45.6429 12.7105ZM45.6429 12.7105C45.6429 9.64713 43.0963 7.1579 40 7.1579C36.9037 7.1579 34.3571 9.64713 34.3571 12.7105M45.6429 12.7105H34.3571M34.3571 12.7105V38.8158C34.3571 41.8792 36.9037 44.3684 40 44.3684C43.1015 44.3684 45.5996 41.8742 45.6 38.8166L34.3571 12.7105ZM36.2143 66.6895V66.2575L35.7869 66.1948C22.1067 64.1869 10.7718 52.7488 10.5048 38.8947H16.7913C17.0741 51.5811 28.1006 60.3684 40 60.3684C51.8994 60.3684 62.9259 51.5811 63.2087 38.8947H69.4952C69.2282 52.7488 57.8933 64.1869 44.2131 66.1948L43.7857 66.2575V66.6895V80H36.2143V66.6895ZM48.741 46.9699C46.4242 49.2461 43.2801 50.5263 40 50.5263C36.7199 50.5263 33.5758 49.2461 31.259 46.9699C28.9426 44.6941 27.6429 41.6093 27.6429 38.3947V13.1316C27.6429 9.91697 28.9426 6.83219 31.259 4.55637C33.5758 2.28026 36.7199 1 40 1C43.2801 1 46.4242 2.28026 48.741 4.55637C51.0574 6.83219 52.3571 9.91697 52.3571 13.1316V38.3947C52.3571 41.6094 51.0574 44.6941 48.741 46.9699Z" fill="url(#paint1_linear_2_1688)" stroke="url(#paint2_linear_2_1688)"/>
<defs>
<linearGradient id="paint0_linear_2_1688" x1="40" y1="0.500061" x2="40" y2="80.5001" gradientUnits="userSpaceOnUse">
<stop stop-color="#7B7B7B"/>
<stop offset="1" stop-color="#7B7B7B" stop-opacity="0"/>
</linearGradient>
<linearGradient id="paint1_linear_2_1688" x1="40" y1="0.5" x2="40" y2="80.5" gradientUnits="userSpaceOnUse">
<stop stop-color="#7B7B7B"/>
<stop offset="1" stop-color="#7B7B7B" stop-opacity="0.15"/>
</linearGradient>
<linearGradient id="paint2_linear_2_1688" x1="40" y1="0.5" x2="40" y2="80.5" gradientUnits="userSpaceOnUse">
<stop stop-color="#7B7B7B"/>
<stop offset="0.520833" stop-color="#7B7B7B" stop-opacity="0"/>
</linearGradient>
</defs>
</svg>
