<svg width="12" height="13" viewBox="0 0 12 13" fill="none" xmlns="http://www.w3.org/2000/svg">
<path d="M11.3333 8.83333C10.5333 8.83333 9.66667 8.7 8.93333 8.43333H8.73333C8.53333 8.43333 8.4 8.5 8.26667 8.63333L6.8 10.1C4.93333 9.1 3.33333 7.56667 2.4 5.7L3.86667 4.23333C4.06667 4.03333 4.13333 3.76667 4 3.56667C3.8 2.83333 3.66667 1.96667 3.66667 1.16667C3.66667 0.833333 3.33333 0.5 3 0.5H0.666667C0.333333 0.5 0 0.833333 0 1.16667C0 7.43333 5.06667 12.5 11.3333 12.5C11.6667 12.5 12 12.1667 12 11.8333V9.5C12 9.16667 11.6667 8.83333 11.3333 8.83333ZM1.33333 1.83333H2.33333C2.4 2.43333 2.53333 3.03333 2.66667 3.56667L1.86667 4.36667C1.6 3.56667 1.4 2.7 1.33333 1.83333ZM10.6667 11.1667C9.8 11.1 8.93333 10.9 8.13333 10.6333L8.93333 9.83333C9.46667 9.96667 10.0667 10.1 10.6667 10.1V11.1667Z" fill="#0091EA"/>
<path fill-rule="evenodd" clip-rule="evenodd" d="M11.9999 1.12183L11.3781 0.5L9.33484 2.54321L7.29175 0.500061L6.66992 1.12189L8.71301 3.16504L6.66992 5.20813L7.29175 5.82996L9.33484 3.78687L11.3781 5.83002L11.9999 5.20819L9.95667 3.16504L11.9999 1.12183Z" fill="#0091EA"/>
</svg>
