<svg width="12" height="13" viewBox="0 0 12 13" fill="none" xmlns="http://www.w3.org/2000/svg">
<path d="M8 0.430094L8 1.43009L10.3333 1.43009L6.66667 5.09676L7.33333 5.76343L11 2.09676L11 4.43009L12 4.43009L12 0.430094L8 0.430094Z" fill="#F9AC18"/>
<path d="M11.3333 8.76351C10.5333 8.76351 9.66667 8.63018 8.93333 8.36351H8.73333C8.53333 8.36351 8.4 8.43018 8.26667 8.56351L6.8 10.0302C4.93333 9.03018 3.33333 7.49684 2.4 5.63018L3.86667 4.16351C4.06667 3.96351 4.13333 3.69684 4 3.49684C3.8 2.76351 3.66667 1.89684 3.66667 1.09684C3.66667 0.763509 3.33333 0.430176 3 0.430176H0.666667C0.333333 0.430176 0 0.763509 0 1.09684C0 7.36351 5.06667 12.4302 11.3333 12.4302C11.6667 12.4302 12 12.0968 12 11.7635V9.43018C12 9.09684 11.6667 8.76351 11.3333 8.76351ZM1.33333 1.76351H2.33333C2.4 2.36351 2.53333 2.96351 2.66667 3.49684L1.86667 4.29684C1.6 3.49684 1.4 2.63018 1.33333 1.76351ZM10.6667 11.0968C9.8 11.0302 8.93333 10.8302 8.13333 10.5635L8.93333 9.76351C9.46667 9.89684 10.0667 10.0302 10.6667 10.0302V11.0968Z" fill="#F9AC18"/>
</svg>
