<svg width="20" height="21" viewBox="0 0 20 21" fill="none" xmlns="http://www.w3.org/2000/svg">
<rect opacity="0.3" x="1.2386" y="6.43945" width="17.8281" height="7.93747" fill="#3E3E3E"/>
<path d="M15 5.28516H20V15.2852H15V17.2852C15 17.5504 15.1054 17.8047 15.2929 17.9923C15.4804 18.1798 15.7348 18.2852 16 18.2852H18V20.2852H15.5C14.95 20.2852 14 19.8352 14 19.2852C14 19.8352 13.05 20.2852 12.5 20.2852H10V18.2852H12C12.2652 18.2852 12.5196 18.1798 12.7071 17.9923C12.8946 17.8047 13 17.5504 13 17.2852V3.28516C13 3.01994 12.8946 2.76559 12.7071 2.57805C12.5196 2.39051 12.2652 2.28516 12 2.28516H10V0.285156H12.5C13.05 0.285156 14 0.735156 14 1.28516C14 0.735156 14.95 0.285156 15.5 0.285156H18V2.28516H16C15.7348 2.28516 15.4804 2.39051 15.2929 2.57805C15.1054 2.76559 15 3.01994 15 3.28516V5.28516ZM0 5.28516H14V7.28516H2V13.2852H14V15.2852H0V5.28516ZM18 13.2852V7.28516H15V13.2852H18ZM6.5 10.2852C6.5 9.88733 6.34196 9.5058 6.06066 9.2245C5.77936 8.94319 5.39782 8.78516 5 8.78516C4.60218 8.78516 4.22064 8.94319 3.93934 9.2245C3.65804 9.5058 3.5 9.88733 3.5 10.2852C3.5 10.683 3.65804 11.0645 3.93934 11.3458C4.22064 11.6271 4.60218 11.7852 5 11.7852C5.39782 11.7852 5.77936 11.6271 6.06066 11.3458C6.34196 11.0645 6.5 10.683 6.5 10.2852Z" fill="#3E3E3E"/>
<path d="M11.0685 9.2245C11.3498 9.5058 11.5079 9.88733 11.5079 10.2852C11.5079 10.683 11.3498 11.0645 11.0685 11.3458C10.7872 11.6271 10.4057 11.7852 10.0079 11.7852C9.61005 11.7852 9.22852 11.6271 8.94722 11.3458C8.66591 11.0645 8.50788 10.683 8.50788 10.2852C8.50788 9.88733 8.66591 9.5058 8.94722 9.2245C9.22852 8.94319 9.61005 8.78516 10.0079 8.78516C10.4057 8.78516 10.7872 8.94319 11.0685 9.2245Z" fill="#3E3E3E"/>
</svg>
