<svg width="30" height="30" viewBox="0 0 30 30" fill="none" xmlns="http://www.w3.org/2000/svg">
<path opacity="0.3" d="M9.3604 4.26159C8.35145 3.57838 7 4.31302 7 5.54469V24.4553C7 25.687 8.35145 26.4216 9.3604 25.7384L23.3239 16.2831C24.2254 15.6727 24.2254 14.3273 23.3239 13.7169L9.3604 4.26159Z" fill="#40ADEF"/>
<path d="M8.5 5.54469C8.5 5.52882 8.50204 5.52098 8.50264 5.5189C8.50332 5.51651 8.50388 5.51554 8.50426 5.51492C8.50552 5.51287 8.50989 5.50747 8.51823 5.50293C8.51825 5.50292 8.51827 5.50291 8.51829 5.5029C8.51863 5.50314 8.51899 5.50337 8.51936 5.50362L22.4829 14.9589C22.4891 14.9631 22.4913 14.9657 22.4918 14.9662C22.4924 14.9669 22.4931 14.9678 22.494 14.9696C22.4963 14.974 22.5 14.9846 22.5 15C22.5 15.0154 22.4963 15.026 22.494 15.0304C22.4931 15.0322 22.4924 15.0331 22.4918 15.0338C22.4913 15.0343 22.4891 15.0369 22.4829 15.0411L8.51936 24.4964C8.51899 24.4966 8.51864 24.4969 8.51829 24.4971C8.51827 24.4971 8.51825 24.4971 8.51823 24.4971C8.50989 24.4925 8.50552 24.4871 8.50426 24.4851C8.50388 24.4845 8.50332 24.4835 8.50264 24.4811C8.50204 24.479 8.5 24.4712 8.5 24.4553V5.54469Z" stroke="#40ADEF" stroke-width="3"/>
</svg>
