<svg width="20" height="21" viewBox="0 0 20 21" fill="none" xmlns="http://www.w3.org/2000/svg">
<path d="M10.1818 0.285156L2 3.92152V9.37607C2 14.4215 5.49091 19.1397 10.1818 20.2852C14.8727 19.1397 18.3636 14.4215 18.3636 9.37607V3.92152L10.1818 0.285156ZM10.1818 2.26697L16.5455 5.10334V9.57607C16.5455 11.1215 16.0909 12.6942 15.3182 14.0761C13.8182 12.9579 11.3273 12.5579 10.1818 12.5579C9.03636 12.5579 6.54545 12.9579 5.04545 14.0761C4.27273 12.6942 3.81818 11.1215 3.81818 9.57607V5.10334L10.1818 2.26697ZM10.1818 4.83061C9.33795 4.83061 8.52864 5.16584 7.93193 5.76254C7.33523 6.35925 7 7.16856 7 8.01243C7 8.8563 7.33523 9.66561 7.93193 10.2623C8.52864 10.859 9.33795 11.1942 10.1818 11.1942C11.0257 11.1942 11.835 10.859 12.4317 10.2623C13.0284 9.66561 13.3636 8.8563 13.3636 8.01243C13.3636 7.16856 13.0284 6.35925 12.4317 5.76254C11.835 5.16584 11.0257 4.83061 10.1818 4.83061ZM10.1818 6.64879C10.5435 6.64879 10.8903 6.79246 11.1461 7.04819C11.4018 7.30392 11.5455 7.65077 11.5455 8.01243C11.5455 8.37409 11.4018 8.72093 11.1461 8.97667C10.8903 9.2324 10.5435 9.37607 10.1818 9.37607C9.82016 9.37607 9.47331 9.2324 9.21758 8.97667C8.96185 8.72093 8.81818 8.37409 8.81818 8.01243C8.81818 7.65077 8.96185 7.30392 9.21758 7.04819C9.47331 6.79246 9.82016 6.64879 10.1818 6.64879ZM10.1818 14.3761C11.6091 14.3761 13.4909 14.9306 14.3 15.5942C13.1727 16.9942 11.7273 18.0579 10.1818 18.467C8.63636 18.0579 7.19091 16.9942 6.06364 15.5942C6.88182 14.9306 8.75455 14.3761 10.1818 14.3761Z" fill="#3E3E3E"/>
<path opacity="0.3" fill-rule="evenodd" clip-rule="evenodd" d="M10.1117 1.37988L2.70935 4.6698V10.7013L4.39999 14.8594L4.68261 15.2386L6.94269 14.2415L10.7101 13.4316L12.9987 13.9246L15.5115 15.4951L16.2803 14.4482L17.514 10.4729V4.6698L10.1117 1.37988ZM12.0546 8.01599C12.0546 9.05031 11.2161 9.88879 10.1818 9.88879C9.1475 9.88879 8.30902 9.05031 8.30902 8.01599C8.30902 6.98167 9.1475 6.14319 10.1818 6.14319C11.2161 6.14319 12.0546 6.98167 12.0546 8.01599Z" fill="#3E3E3E"/>
</svg>
