<svg width="24" height="25" viewBox="0 0 24 25" fill="none" xmlns="http://www.w3.org/2000/svg">
<path fill-rule="evenodd" clip-rule="evenodd" d="M8.54083 19.2698H6.09644V4.86981H8.54083V16.9642V17.7423V19.1755V19.2698ZM23.2075 11.8248V9.6698H20.7631V10.489C21.6456 10.7865 22.4738 11.2373 23.2075 11.8248ZM18.3186 10.0706V4.86981H15.8742V10.4177C16.6238 10.1891 17.4095 10.0698 18.2075 10.0698C18.2446 10.0698 18.2816 10.0701 18.3186 10.0706ZM13.4297 11.6531V0.0698242H10.9853V14.629C11.3735 13.8141 11.9003 13.0634 12.5507 12.413C12.8265 12.1371 13.1205 11.8834 13.4297 11.6531ZM3.65198 14.4698H1.20752V9.6698H3.65198V14.4698Z" fill="#EF3024"/>
<path opacity="0.3" d="M18 13.2698C15.348 13.2698 13.2 15.4178 13.2 18.0698C13.2 20.7218 15.348 22.8698 18 22.8698C20.652 22.8698 22.8 20.7218 22.8 18.0698C22.8 15.4178 20.652 13.2698 18 13.2698ZM20.55 20.5598L17.4 18.6698V15.0698H18.3V18.2198L21 19.8218L20.55 20.5598Z" fill="#EF3024"/>
<path d="M17.994 12.0698C14.682 12.0698 12 14.7578 12 18.0698C12 21.3818 14.682 24.0698 17.994 24.0698C21.312 24.0698 24 21.3818 24 18.0698C24 14.7578 21.312 12.0698 17.994 12.0698ZM18 22.8698C15.348 22.8698 13.2 20.7218 13.2 18.0698C13.2 15.4178 15.348 13.2698 18 13.2698C20.652 13.2698 22.8 15.4178 22.8 18.0698C22.8 20.7218 20.652 22.8698 18 22.8698ZM18.3 15.0698H17.4V18.6698L20.55 20.5598L21 19.8218L18.3 18.2198V15.0698Z" fill="#EF3024"/>
</svg>
