<svg width="24" height="25" viewBox="0 0 24 25" fill="none" xmlns="http://www.w3.org/2000/svg">
<path fill-rule="evenodd" clip-rule="evenodd" d="M8.54083 19.2698H6.09644V4.86981H8.54083V16.9642V17.7423V19.1755V19.2698ZM23.2075 11.8248V9.6698H20.7631V10.489C21.6456 10.7865 22.4738 11.2373 23.2075 11.8248ZM18.3186 10.0706V4.86981H15.8742V10.4177C16.6238 10.1891 17.4095 10.0698 18.2075 10.0698C18.2446 10.0698 18.2816 10.0701 18.3186 10.0706ZM13.4297 11.6531V0.0698242H10.9853V14.629C11.3735 13.8141 11.9003 13.0634 12.5507 12.413C12.8265 12.1371 13.1205 11.8834 13.4297 11.6531ZM3.65198 14.4698H1.20752V9.6698H3.65198V14.4698Z" fill="#CFD1DC"/>
<path opacity="0.3" d="M18 13.4851C15.348 13.4851 13.2 15.6331 13.2 18.2851C13.2 20.9371 15.348 23.0851 18 23.0851C20.652 23.0851 22.8 20.9371 22.8 18.2851C22.8 15.6331 20.652 13.4851 18 13.4851ZM20.55 20.7751L17.4 18.8851V15.2851H18.3V18.4351L21 20.0371L20.55 20.7751Z" fill="#CFD1DC"/>
<path d="M17.994 12.2852C14.682 12.2852 12 14.9732 12 18.2852C12 21.5972 14.682 24.2852 17.994 24.2852C21.312 24.2852 24 21.5972 24 18.2852C24 14.9732 21.312 12.2852 17.994 12.2852ZM18 23.0852C15.348 23.0852 13.2 20.9372 13.2 18.2852C13.2 15.6332 15.348 13.4852 18 13.4852C20.652 13.4852 22.8 15.6332 22.8 18.2852C22.8 20.9372 20.652 23.0852 18 23.0852ZM18.3 15.2852H17.4V18.8852L20.55 20.7752L21 20.0372L18.3 18.4352V15.2852Z" fill="#CFD1DC"/>
</svg>
