<svg width="24" height="26" viewBox="0 0 24 26" fill="none" xmlns="http://www.w3.org/2000/svg">
<rect opacity="0.3" x="10.2839" y="3.16333" width="3.2865" height="10.8424" fill="#CFD1DC" stroke="#CFD1DC"/>
<path d="M18.7308 12.4382C18.7308 16.2277 15.4651 18.8804 11.9165 18.8804C8.36793 18.8804 5.10222 16.2277 5.10222 12.4382H2.9165C2.9165 16.7456 6.41365 20.3077 10.6308 20.9267V25.0698H13.2022V20.9267C17.4194 20.3077 20.9165 16.7456 20.9165 12.4382H18.7308ZM10.3736 4.73298C10.3736 3.8993 11.0679 3.21719 11.9165 3.21719C12.7651 3.21719 13.4594 3.8993 13.4594 4.73298L13.4465 12.5646C13.4465 13.3982 12.7651 14.0803 11.9165 14.0803C11.0679 14.0803 10.3736 13.3982 10.3736 12.5646V4.73298ZM11.9165 16.2277C12.9395 16.2277 13.9206 15.8285 14.6439 15.1178C15.3673 14.4071 15.7736 13.4433 15.7736 12.4382V4.8593C15.7736 3.85427 15.3673 2.8904 14.6439 2.17974C13.9206 1.46907 12.9395 1.06982 11.9165 1.06982C10.8935 1.06982 9.91245 1.46907 9.18909 2.17974C8.46574 2.8904 8.05936 3.85427 8.05936 4.8593V12.4382C8.05936 13.4433 8.46574 14.4071 9.18909 15.1178C9.91245 15.8285 10.8935 16.2277 11.9165 16.2277Z" fill="#CFD1DC" stroke="#CFD1DC" stroke-width="0.5"/>
</svg>
