<svg width="152" height="152" viewBox="0 0 152 152" fill="none" xmlns="http://www.w3.org/2000/svg">
<g filter="url(#filter0_d_55_24662)">
<circle cx="76" cy="72" r="60" fill="#0091EA"/>
<circle cx="76" cy="72" r="59" stroke="#FDFEFD" stroke-width="2"/>
</g>
<rect x="70.4375" y="49.1196" width="10.4578" height="26.2859" fill="#FCFEFF" fill-opacity="0.3"/>
<path d="M90.2643 70.6316C90.2643 78.8421 83.1886 84.5895 75.5 84.5895C67.8114 84.5895 60.7357 78.8421 60.7357 70.6316H56C56 79.9642 63.5771 87.6821 72.7143 89.0232V98H78.2857V89.0232C87.4229 87.6821 95 79.9642 95 70.6316H90.2643ZM72.1571 53.9368C72.1571 52.1305 73.6614 50.6526 75.5 50.6526C77.3386 50.6526 78.8429 52.1305 78.8429 53.9368L78.815 70.9053C78.815 72.7116 77.3386 74.1895 75.5 74.1895C73.6614 74.1895 72.1571 72.7116 72.1571 70.9053V53.9368ZM75.5 78.8421C77.7165 78.8421 79.8421 77.9771 81.4094 76.4373C82.9767 74.8975 83.8571 72.8091 83.8571 70.6316V54.2105C83.8571 52.033 82.9767 49.9446 81.4094 48.4048C79.8421 46.865 77.7165 46 75.5 46C73.2835 46 71.1579 46.865 69.5906 48.4048C68.0233 49.9446 67.1429 52.033 67.1429 54.2105V70.6316C67.1429 72.8091 68.0233 74.8975 69.5906 76.4373C71.1579 77.9771 73.2835 78.8421 75.5 78.8421Z" fill="#FCFEFF"/>
<defs>
<filter id="filter0_d_55_24662" x="0" y="0" width="152" height="152" filterUnits="userSpaceOnUse" color-interpolation-filters="sRGB">
<feFlood flood-opacity="0" result="BackgroundImageFix"/>
<feColorMatrix in="SourceAlpha" type="matrix" values="0 0 0 0 0 0 0 0 0 0 0 0 0 0 0 0 0 0 127 0" result="hardAlpha"/>
<feOffset dy="4"/>
<feGaussianBlur stdDeviation="8"/>
<feComposite in2="hardAlpha" operator="out"/>
<feColorMatrix type="matrix" values="0 0 0 0 0 0 0 0 0 0.568627 0 0 0 0 0.917647 0 0 0 0.4 0"/>
<feBlend mode="normal" in2="BackgroundImageFix" result="effect1_dropShadow_55_24662"/>
<feBlend mode="normal" in="SourceGraphic" in2="effect1_dropShadow_55_24662" result="shape"/>
</filter>
</defs>
</svg>
