<svg width="24" height="26" viewBox="0 0 24 26" fill="none" xmlns="http://www.w3.org/2000/svg">
<rect opacity="0.3" x="10.2832" y="2.87817" width="3.2865" height="10.8424" fill="#0091EA" stroke="#0091EA"/>
<path d="M18.7303 12.1531C18.7303 15.9426 15.4646 18.5952 11.916 18.5952C8.36744 18.5952 5.10173 15.9426 5.10173 12.1531H2.91602C2.91602 16.4605 6.41316 20.0226 10.6303 20.6415V24.7847H13.2017V20.6415C17.4189 20.0226 20.916 16.4605 20.916 12.1531H18.7303ZM10.3732 4.44783C10.3732 3.61414 11.0674 2.93204 11.916 2.93204C12.7646 2.93204 13.4589 3.61414 13.4589 4.44783L13.446 12.2794C13.446 13.1131 12.7646 13.7952 11.916 13.7952C11.0674 13.7952 10.3732 13.1131 10.3732 12.2794V4.44783ZM11.916 15.9426C12.939 15.9426 13.9201 15.5433 14.6434 14.8327C15.3668 14.122 15.7732 13.1581 15.7732 12.1531V4.57414C15.7732 3.56911 15.3668 2.60524 14.6434 1.89458C13.9201 1.18392 12.939 0.784668 11.916 0.784668C10.893 0.784668 9.91196 1.18392 9.1886 1.89458C8.46525 2.60524 8.05887 3.56911 8.05887 4.57414V12.1531C8.05887 13.1581 8.46525 14.122 9.1886 14.8327C9.91196 15.5433 10.893 15.9426 11.916 15.9426Z" fill="#0091EA" stroke="#0091EA" stroke-width="0.5"/>
</svg>
