<svg width="24" height="25" viewBox="0 0 24 25" fill="none" xmlns="http://www.w3.org/2000/svg">
<rect opacity="0.3" x="10.2733" y="2.16333" width="3.2865" height="10.8424" fill="#EF3024" stroke="#EF3024"/>
<path d="M18.7308 11.6536C18.7308 15.4431 15.4651 18.0957 11.9165 18.0957C8.36793 18.0957 5.10222 15.4431 5.10222 11.6536H2.9165C2.9165 15.9609 6.41365 19.523 10.6308 20.142V24.2852H13.2022V20.142C17.4194 19.523 20.9165 15.9609 20.9165 11.6536H18.7308ZM10.3736 3.94831C10.3736 3.11463 11.0679 2.43252 11.9165 2.43252C12.7651 2.43252 13.4594 3.11463 13.4594 3.94831L13.4465 11.7799C13.4465 12.6136 12.7651 13.2957 11.9165 13.2957C11.0679 13.2957 10.3736 12.6136 10.3736 11.7799V3.94831ZM11.9165 15.4431C12.9395 15.4431 13.9206 15.0438 14.6439 14.3331C15.3673 13.6225 15.7736 12.6586 15.7736 11.6536V4.07463C15.7736 3.0696 15.3673 2.10573 14.6439 1.39507C13.9206 0.684403 12.9395 0.285156 11.9165 0.285156C10.8935 0.285156 9.91245 0.684403 9.18909 1.39507C8.46574 2.10573 8.05936 3.0696 8.05936 4.07463V11.6536C8.05936 12.6586 8.46574 13.6225 9.18909 14.3331C9.91245 15.0438 10.8935 15.4431 11.9165 15.4431Z" fill="#EF3024" stroke="#EF3024" stroke-width="0.5"/>
</svg>
