<svg width="20" height="26" viewBox="0 0 20 26" fill="none" xmlns="http://www.w3.org/2000/svg">
<path d="M16.7303 12.1531C16.7303 15.9426 13.4646 18.5952 9.91602 18.5952C6.36744 18.5952 3.10173 15.9426 3.10173 12.1531H0.916016C0.916016 16.4605 4.41316 20.0226 8.6303 20.6415V24.7847H11.2017V20.6415C15.4189 20.0226 18.916 16.4605 18.916 12.1531H16.7303ZM8.37316 4.44783C8.37316 3.61414 9.06744 2.93204 9.91602 2.93204C10.7646 2.93204 11.4589 3.61414 11.4589 4.44783L11.446 12.2794C11.446 13.1131 10.7646 13.7952 9.91602 13.7952C9.06744 13.7952 8.37316 13.1131 8.37316 12.2794V4.44783ZM9.91602 15.9426C10.939 15.9426 11.9201 15.5433 12.6434 14.8327C13.3668 14.122 13.7732 13.1581 13.7732 12.1531V4.57414C13.7732 3.56911 13.3668 2.60524 12.6434 1.89458C11.9201 1.18392 10.939 0.784668 9.91602 0.784668C8.89304 0.784668 7.91196 1.18392 7.1886 1.89458C6.46525 2.60524 6.05887 3.56911 6.05887 4.57414V12.1531C6.05887 13.1581 6.46525 14.122 7.1886 14.8327C7.91196 15.5433 8.89304 15.9426 9.91602 15.9426Z" fill="#656774" stroke="#656774" stroke-width="0.5"/>
</svg>
