<svg width="140" height="141" viewBox="0 0 140 141" fill="none" xmlns="http://www.w3.org/2000/svg">
<g filter="url(#filter0_d_2_1550)">
<circle cx="70" cy="65.5" r="60" fill="#EF3024"/>
</g>
<rect x="64.4366" y="42.6196" width="10.4578" height="26.2859" fill="white" fill-opacity="0.3"/>
<path d="M84.2643 64.1316C84.2643 72.3421 77.1886 78.0895 69.5 78.0895C61.8114 78.0895 54.7357 72.3421 54.7357 64.1316H50C50 73.4642 57.5771 81.1821 66.7143 82.5232V91.5H72.2857V82.5232C81.4229 81.1821 89 73.4642 89 64.1316H84.2643ZM66.1571 47.4368C66.1571 45.6305 67.6614 44.1526 69.5 44.1526C71.3386 44.1526 72.8429 45.6305 72.8429 47.4368L72.815 64.4053C72.815 66.2116 71.3386 67.6895 69.5 67.6895C67.6614 67.6895 66.1571 66.2116 66.1571 64.4053V47.4368ZM69.5 72.3421C71.7165 72.3421 73.8421 71.4771 75.4094 69.9373C76.9767 68.3975 77.8571 66.3091 77.8571 64.1316V47.7105C77.8571 45.533 76.9767 43.4446 75.4094 41.9048C73.8421 40.365 71.7165 39.5 69.5 39.5C67.2835 39.5 65.1579 40.365 63.5906 41.9048C62.0233 43.4446 61.1429 45.533 61.1429 47.7105V64.1316C61.1429 66.3091 62.0233 68.3975 63.5906 69.9373C65.1579 71.4771 67.2835 72.3421 69.5 72.3421Z" fill="white"/>
<defs>
<filter id="filter0_d_2_1550" x="0" y="0.5" width="140" height="140" filterUnits="userSpaceOnUse" color-interpolation-filters="sRGB">
<feFlood flood-opacity="0" result="BackgroundImageFix"/>
<feColorMatrix in="SourceAlpha" type="matrix" values="0 0 0 0 0 0 0 0 0 0 0 0 0 0 0 0 0 0 127 0" result="hardAlpha"/>
<feOffset dy="5"/>
<feGaussianBlur stdDeviation="5"/>
<feComposite in2="hardAlpha" operator="out"/>
<feColorMatrix type="matrix" values="0 0 0 0 0.937255 0 0 0 0 0.188235 0 0 0 0 0.141176 0 0 0 0.5 0"/>
<feBlend mode="normal" in2="BackgroundImageFix" result="effect1_dropShadow_2_1550"/>
<feBlend mode="normal" in="SourceGraphic" in2="effect1_dropShadow_2_1550" result="shape"/>
</filter>
</defs>
</svg>
