<svg width="18" height="18" viewBox="0 0 18 18" fill="none" xmlns="http://www.w3.org/2000/svg">
<path d="M11.8144 1.08413C10.2015 0.510853 8.45197 0.443999 6.80006 0.892518L6.8 0.892533C5.42357 1.26607 4.16472 1.98297 3.14225 2.97779C2.1199 3.9725 1.36769 5.21118 0.956528 6.57705C0.545369 7.94292 0.488804 9.391 0.792166 10.7848C1.09553 12.1786 1.74882 13.4721 2.69047 14.5436C3.63212 15.615 4.8311 16.429 6.17439 16.9088C7.51768 17.3886 8.96103 17.5185 10.3684 17.2861C11.7758 17.0537 13.1008 16.4668 14.2185 15.5806C15.3352 14.6953 16.2083 13.5405 16.7556 12.2248C16.8163 12.0859 16.8489 11.9364 16.8516 11.7848C16.8544 11.6316 16.8264 11.4795 16.7695 11.3372C16.7126 11.195 16.6279 11.0655 16.5202 10.9565C16.4126 10.8475 16.2843 10.761 16.1428 10.7023C16.0013 10.6435 15.8495 10.6137 15.6962 10.6144C15.543 10.6152 15.3915 10.6465 15.2506 10.7066C15.1097 10.7667 14.9822 10.8544 14.8756 10.9645C14.7702 11.0733 14.6874 11.2019 14.6319 11.3428C14.108 12.6017 13.1774 13.6489 11.9887 14.317C10.7988 14.9857 9.41893 15.236 8.06993 15.0279C6.72092 14.8198 5.4807 14.1652 4.54767 13.169C3.61463 12.1727 3.04271 10.8922 2.92338 9.5325C2.80406 8.17276 3.14423 6.81229 3.88949 5.66873C4.63474 4.52517 5.74201 3.66461 7.03414 3.22471C8.32628 2.78481 9.72863 2.791 11.0168 3.24229C12.0639 3.60912 12.9864 4.2528 13.6899 5.09856H12.7498C12.4448 5.09856 12.1523 5.21972 11.9366 5.43538C11.721 5.65105 11.5998 5.94356 11.5998 6.24856C11.5998 6.55355 11.721 6.84606 11.9366 7.06173C12.1523 7.2774 12.4448 7.39856 12.7498 7.39856H16.4998C16.9969 7.39856 17.3998 6.99561 17.3998 6.49856V2.74856C17.3998 2.44356 17.2787 2.15105 17.063 1.93538C16.8473 1.71972 16.5548 1.59856 16.2498 1.59856C15.9448 1.59856 15.6523 1.71972 15.4366 1.93538C15.221 2.15105 15.0998 2.44356 15.0998 2.74856V3.22272C14.1923 2.26459 13.0679 1.52968 11.8144 1.08413Z" fill="#0091EA" stroke="#0091EA" stroke-width="0.8"/>
</svg>
