<svg width="72" height="72" viewBox="0 0 72 72" fill="none" xmlns="http://www.w3.org/2000/svg">
<g filter="url(#filter0_d_55_24717)">
<circle cx="36" cy="31" r="26" fill="#FCFEFF"/>
<circle cx="36" cy="31" r="25.5" stroke="url(#paint0_linear_55_24717)"/>
</g>
<path d="M38.8144 23.0851C37.2015 22.5118 35.452 22.445 33.8001 22.8935L33.8 22.8935C32.4236 23.267 31.1647 23.9839 30.1423 24.9788C29.1199 25.9735 28.3677 27.2122 27.9565 28.578C27.5454 29.9439 27.4888 31.392 27.7922 32.7858C28.0955 34.1795 28.7488 35.4731 29.6905 36.5445C30.6321 37.616 31.8311 38.43 33.1744 38.9098C34.5177 39.3896 35.961 39.5195 37.3684 39.2871C38.7758 39.0547 40.1008 38.4678 41.2185 37.5816C42.3352 36.6963 43.2083 35.5414 43.7556 34.2257C43.8163 34.0869 43.8489 33.9374 43.8516 33.7858C43.8544 33.6326 43.8264 33.4804 43.7695 33.3382C43.7126 33.1959 43.6279 33.0665 43.5202 32.9575C43.4126 32.8484 43.2843 32.762 43.1428 32.7033C43.0013 32.6445 42.8495 32.6146 42.6962 32.6154C42.543 32.6161 42.3915 32.6475 42.2506 32.7076C42.1097 32.7677 41.9822 32.8554 41.8756 32.9654C41.7702 33.0743 41.6874 33.2029 41.6319 33.3438C41.108 34.6027 40.1774 35.6498 38.9887 36.3179C37.7988 36.9867 36.4189 37.237 35.0699 37.0289C33.7209 36.8208 32.4807 36.1662 31.5477 35.1699C30.6146 34.1736 30.0427 32.8932 29.9234 31.5335C29.8041 30.1737 30.1442 28.8133 30.8895 27.6697C31.6347 26.5261 32.742 25.6656 34.0341 25.2257C35.3263 24.7858 36.7286 24.792 38.0168 25.2433C39.0639 25.6101 39.9864 26.2538 40.6899 27.0995H39.7498C39.4448 27.0995 39.1523 27.2207 38.9366 27.4364C38.721 27.652 38.5998 27.9445 38.5998 28.2495C38.5998 28.5545 38.721 28.847 38.9366 29.0627C39.1523 29.2784 39.4448 29.3995 39.7498 29.3995H43.4998C43.9969 29.3995 44.3998 28.9966 44.3998 28.4995V24.7495C44.3998 24.4445 44.2787 24.152 44.063 23.9364C43.8473 23.7207 43.5548 23.5995 43.2498 23.5995C42.9448 23.5995 42.6523 23.7207 42.4366 23.9364C42.221 24.152 42.0998 24.4445 42.0998 24.7495V25.2237C41.1923 24.2656 40.0679 23.5307 38.8144 23.0851Z" fill="#0091EA" stroke="#0091EA" stroke-width="0.8"/>
<defs>
<filter id="filter0_d_55_24717" x="0" y="0" width="72" height="72" filterUnits="userSpaceOnUse" color-interpolation-filters="sRGB">
<feFlood flood-opacity="0" result="BackgroundImageFix"/>
<feColorMatrix in="SourceAlpha" type="matrix" values="0 0 0 0 0 0 0 0 0 0 0 0 0 0 0 0 0 0 127 0" result="hardAlpha"/>
<feOffset dy="5"/>
<feGaussianBlur stdDeviation="5"/>
<feComposite in2="hardAlpha" operator="out"/>
<feColorMatrix type="matrix" values="0 0 0 0 0 0 0 0 0 0 0 0 0 0 0 0 0 0 0.05 0"/>
<feBlend mode="normal" in2="BackgroundImageFix" result="effect1_dropShadow_55_24717"/>
<feBlend mode="normal" in="SourceGraphic" in2="effect1_dropShadow_55_24717" result="shape"/>
</filter>
<linearGradient id="paint0_linear_55_24717" x1="36" y1="5" x2="36" y2="57" gradientUnits="userSpaceOnUse">
<stop stop-color="white"/>
<stop offset="1" stop-color="#DFE2EE"/>
</linearGradient>
</defs>
</svg>
