<svg width="24" height="25" viewBox="0 0 24 25" fill="none" xmlns="http://www.w3.org/2000/svg">
<circle opacity="0.3" cx="8.73362" cy="9.1524" r="7.17706" fill="#3E3E3E"/>
<path d="M17.1527 15.3795H16.0686L15.6844 15.009C17.0292 13.4447 17.8388 11.4138 17.8388 9.20454C17.8388 4.2783 13.8456 0.285156 8.91938 0.285156C3.99314 0.285156 0 4.2783 0 9.20454C0 14.1308 3.99314 18.1239 8.91938 18.1239C11.1286 18.1239 13.1595 17.3143 14.7238 15.9695L15.0943 16.3538V17.4378L21.9554 24.2852L24 22.2406L17.1527 15.3795ZM8.91938 15.3795C5.50257 15.3795 2.74443 12.6213 2.74443 9.20454C2.74443 5.78773 5.50257 3.02958 8.91938 3.02958C12.3362 3.02958 15.0943 5.78773 15.0943 9.20454C15.0943 12.6213 12.3362 15.3795 8.91938 15.3795Z" fill="#3E3E3E"/>
</svg>
