<svg width="24" height="24" viewBox="0 0 24 24" fill="none" xmlns="http://www.w3.org/2000/svg">
<path d="M4.08487 4.65697L4.68478 3.61672C4.44925 3.48054 4.17443 3.42846 3.9054 3.46901C3.63638 3.50956 3.38912 3.64034 3.20419 3.83989L4.08487 4.65697ZM1.68641 8.81318L0.539368 8.45923C0.459531 8.7189 0.470177 8.99797 0.569565 9.2508C0.668953 9.50363 0.851199 9.71525 1.08649 9.85104L1.68641 8.81318ZM1.68401 15.1855L1.08409 14.1464C0.848509 14.2825 0.666166 14.4946 0.566971 14.7479C0.467777 15.0013 0.45762 15.2808 0.538168 15.5406L1.68401 15.1855ZM4.08367 19.3417L3.20299 20.1576C3.38792 20.3571 3.63518 20.4879 3.9042 20.5285C4.17323 20.569 4.44805 20.5169 4.68358 20.3807L4.08367 19.3417ZM9.60288 22.5272H8.40545C8.40546 22.7992 8.49784 23.063 8.66743 23.2755C8.83703 23.4881 9.07379 23.6367 9.33892 23.6971L9.60648 22.5272H9.60288ZM14.4034 22.5296L14.671 23.6995C14.9359 23.6389 15.1724 23.4901 15.3417 23.2776C15.5111 23.0651 15.6033 22.8014 15.6032 22.5296H14.4034ZM19.9238 19.3429L19.3239 20.3819C19.5593 20.5178 19.8339 20.5697 20.1026 20.5292C20.3714 20.4886 20.6184 20.358 20.8033 20.1588L19.9238 19.3429ZM22.3211 15.1843L23.4681 15.5382C23.548 15.2786 23.5373 14.9995 23.4379 14.7467C23.3385 14.4938 23.1563 14.2822 22.921 14.1464L22.3211 15.1843ZM22.3235 8.81198L22.9234 9.85104C23.159 9.71496 23.3413 9.50287 23.4405 9.24954C23.5397 8.99621 23.5499 8.71669 23.4693 8.45683L22.3235 8.81198ZM19.9238 4.65457L20.8045 3.83989C20.6197 3.64014 20.3725 3.50914 20.1035 3.46837C19.8345 3.4276 19.5596 3.47949 19.3239 3.61552L19.9238 4.65457ZM14.4046 1.47142H15.6044C15.6045 1.19968 15.5123 0.935959 15.3429 0.723441C15.1736 0.510922 14.9371 0.36219 14.6722 0.30159L14.4046 1.47142ZM9.60528 1.46902L9.33772 0.29919C9.07281 0.35979 8.83633 0.508522 8.66697 0.721041C8.4976 0.933559 8.4054 1.19728 8.40545 1.46902H9.60528ZM2.83344 9.16713C3.25718 7.7909 3.98551 6.52781 4.96434 5.47166L3.20419 3.83989C1.98074 5.16014 1.07034 6.74019 0.540568 8.46043L2.83344 9.16833V9.16713ZM3.69252 16.7992C3.33291 16.1775 3.04396 15.5175 2.83104 14.8315L0.539368 15.5418C0.799731 16.3829 1.15728 17.2072 1.61442 17.9991L3.69252 16.7992ZM4.96434 18.5282C4.47774 18.001 4.05036 17.4211 3.69252 16.7992L1.61442 17.9991C2.07035 18.791 2.60667 19.5121 3.20419 20.1588L4.96434 18.5282ZM14.1382 21.361C12.7339 21.6807 11.2756 21.6799 9.87164 21.3586L9.33772 23.6983C11.0931 24.0998 12.9164 24.1006 14.6722 23.7007L14.1382 21.361ZM21.1764 14.8327C20.7527 16.209 20.0244 17.4721 19.0455 18.5282L20.8045 20.16C22.0279 18.8397 22.9383 17.2609 23.4681 15.5406L21.1764 14.8327ZM20.3174 7.20061C20.6845 7.83652 20.9713 8.49643 21.1788 9.16833L23.4705 8.45803C23.2054 7.60124 22.8448 6.77698 22.3955 6.00078L20.3174 7.20061ZM19.0455 5.47166C19.5219 5.98758 19.9502 6.5635 20.3174 7.20061L22.3955 6.00078C21.9477 5.22389 21.4144 4.4995 20.8057 3.84109L19.0443 5.47286L19.0455 5.47166ZM9.87164 2.63886C11.276 2.31915 12.7343 2.31997 14.1382 2.64126L14.6722 0.30159C12.9172 -0.0997183 11.0931 -0.100539 9.33772 0.29919L9.87164 2.63886ZM10.8051 3.68751V1.46782H8.40545V3.68751H10.8051ZM6.60571 4.72656L4.68478 3.61672L3.48495 5.69483L5.40588 6.80467L6.60571 4.72656ZM3.00622 13.039L1.08529 14.1476L2.28512 16.2257L4.20605 15.1171L3.00622 13.039ZM4.20605 8.88277L2.28632 7.77533L1.08649 9.85344L3.00622 10.9609L4.20605 8.88277ZM10.8051 22.5284V20.3123H8.40545V22.5272L10.8051 22.5284ZM5.40588 17.1952L3.48495 18.305L4.68478 20.3831L6.60451 19.2733L5.40588 17.1952ZM20.5249 18.305L18.604 17.1952L17.4042 19.2733L19.3251 20.3831L20.5249 18.305ZM15.6044 22.5308V20.3123H13.2048V22.532L15.6044 22.5308ZM21.7248 7.77293L19.8038 8.88277L21.0037 10.9609L22.9234 9.85104L21.7248 7.77293ZM22.9222 14.1464L21.0037 13.039L19.8038 15.1171L21.7236 16.2245L22.9222 14.1464ZM15.6044 3.68751V1.47142H13.2048V3.68751H15.6044ZM19.3251 3.61672L17.4042 4.72656L18.604 6.80467L20.5249 5.69483L19.3251 3.61672ZM13.2048 3.68751C13.2048 6.45912 16.2043 8.19047 18.604 6.80467L17.4042 4.72656C17.2218 4.83187 17.0149 4.88731 16.8043 4.88731C16.5937 4.88731 16.3868 4.83187 16.2044 4.72657C16.022 4.62127 15.8705 4.46981 15.7652 4.28741C15.6599 4.10502 15.6044 3.89812 15.6044 3.68751H13.2048ZM19.8038 8.88277C17.4042 10.2686 17.4042 13.7313 19.8038 15.1171L21.0037 13.039C20.8213 12.9337 20.6698 12.7822 20.5645 12.5998C20.4592 12.4174 20.4038 12.2105 20.4038 11.9999C20.4038 11.7893 20.4592 11.5824 20.5645 11.4C20.6698 11.2177 20.8213 11.0662 21.0037 10.9609L19.8038 8.88277ZM18.604 17.1952C16.2043 15.8106 13.2048 17.5419 13.2048 20.3123H15.6044C15.6044 20.1017 15.6599 19.8948 15.7652 19.7124C15.8705 19.5301 16.022 19.3786 16.2044 19.2733C16.3868 19.168 16.5937 19.1126 16.8043 19.1126C17.0149 19.1126 17.2218 19.168 17.4042 19.2733L18.604 17.1952ZM10.8051 20.3123C10.8051 17.5407 7.80554 15.8094 5.40588 17.1952L6.60451 19.2733C6.7869 19.168 6.995 19.1126 7.20562 19.1126C7.41623 19.1126 7.62313 19.168 7.80552 19.2733C7.98792 19.3786 8.13938 19.5301 8.24469 19.7124C8.35 19.8948 8.40545 20.1017 8.40545 20.3123H10.8051ZM4.20605 15.1171C6.60571 13.7313 6.60571 10.2686 4.20605 8.88277L3.00622 10.9609C3.1886 11.0662 3.34005 11.2177 3.44535 11.4C3.55065 11.5824 3.60608 11.7893 3.60608 11.9999C3.60608 12.2105 3.55065 12.4174 3.44535 12.5998C3.34005 12.7822 3.1886 12.9337 3.00622 13.039L4.20605 15.1171ZM8.40545 3.68751C8.40545 3.89812 8.35 4.10502 8.24469 4.28741C8.13938 4.46981 7.98792 4.62127 7.80552 4.72657C7.62313 4.83187 7.41623 4.88731 7.20562 4.88731C6.995 4.88731 6.7881 4.83187 6.60571 4.72656L5.40588 6.80467C7.80554 8.18927 10.8051 6.45792 10.8051 3.68751H8.40545Z" fill="#656774"/>
<path d="M12.0012 14.3995C13.3265 14.3995 14.4009 13.3252 14.4009 11.9999C14.4009 10.6746 13.3265 9.60022 12.0012 9.60022C10.6759 9.60022 9.60156 10.6746 9.60156 11.9999C9.60156 13.3252 10.6759 14.3995 12.0012 14.3995Z" stroke="#656774" stroke-width="2"/>
<g opacity="0.3">
<path d="M4.08487 4.65697L4.68478 3.61672C4.44925 3.48054 4.17443 3.42846 3.9054 3.46901C3.63638 3.50956 3.38912 3.64034 3.20419 3.83989L4.08487 4.65697ZM1.68641 8.81318L0.539368 8.45923C0.459531 8.7189 0.470177 8.99797 0.569565 9.2508C0.668953 9.50363 0.851199 9.71525 1.08649 9.85104L1.68641 8.81318ZM1.68401 15.1855L1.08409 14.1464C0.848509 14.2825 0.666166 14.4946 0.566971 14.7479C0.467777 15.0013 0.45762 15.2808 0.538168 15.5406L1.68401 15.1855ZM4.08367 19.3417L3.20299 20.1576C3.38792 20.3571 3.63518 20.4879 3.9042 20.5285C4.17323 20.569 4.44805 20.5169 4.68358 20.3807L4.08367 19.3417ZM9.60288 22.5272H8.40545C8.40547 22.7992 8.49784 23.063 8.66743 23.2755C8.83703 23.4881 9.07379 23.6367 9.33892 23.6971L9.60648 22.5272H9.60288ZM14.4034 22.5296L14.671 23.6995C14.9359 23.6389 15.1724 23.4901 15.3417 23.2776C15.5111 23.0651 15.6033 22.8014 15.6032 22.5296H14.4034ZM19.9238 19.3429L19.3239 20.3819C19.5593 20.5178 19.8339 20.5697 20.1026 20.5292C20.3714 20.4886 20.6184 20.358 20.8033 20.1588L19.9238 19.3429ZM22.3211 15.1843L23.4681 15.5382C23.548 15.2786 23.5373 14.9995 23.4379 14.7467C23.3385 14.4938 23.1563 14.2822 22.921 14.1464L22.3211 15.1843ZM22.3235 8.81199L22.9234 9.85104C23.159 9.71496 23.3413 9.50287 23.4405 9.24954C23.5397 8.99621 23.5499 8.71669 23.4693 8.45683L22.3235 8.81199ZM19.9238 4.65457L20.8045 3.83989C20.6197 3.64014 20.3725 3.50914 20.1035 3.46837C19.8345 3.4276 19.5596 3.47949 19.3239 3.61552L19.9238 4.65457ZM14.4046 1.47142H15.6044C15.6045 1.19968 15.5123 0.935959 15.3429 0.723441C15.1736 0.510922 14.9371 0.36219 14.6722 0.30159L14.4046 1.47142ZM9.60528 1.46902L9.33772 0.29919C9.07281 0.35979 8.83633 0.508522 8.66697 0.721041C8.4976 0.933559 8.4054 1.19728 8.40545 1.46902H9.60528ZM2.83344 9.16713C2.92656 8.8647 3.03439 8.56774 3.15635 8.27723C3.4673 7.53657 3.87012 6.83789 4.35532 6.19769C4.54582 5.94633 4.74902 5.70399 4.96434 5.47166L3.20419 3.83989C1.98074 5.16014 1.07034 6.74019 0.540568 8.46043L2.83344 9.16833V9.16713ZM3.69252 16.7993C3.49148 16.4517 3.31253 16.0921 3.15659 15.7228C3.0336 15.4314 2.92493 15.134 2.83104 14.8315L0.539368 15.5418C0.799731 16.3829 1.15728 17.2072 1.61442 17.9991L3.69252 16.7993ZM4.96434 18.5282C4.74993 18.2959 4.54701 18.0534 4.35647 17.8015C4.1146 17.4818 3.89268 17.1471 3.69252 16.7993L1.61442 17.9991C2.07035 18.791 2.60667 19.5121 3.20419 20.1588L4.96434 18.5282ZM14.1382 21.361C13.8293 21.4313 13.5178 21.4862 13.2048 21.5255C12.408 21.6255 11.6018 21.6251 10.8051 21.5241C10.4921 21.4845 10.1806 21.4293 9.87164 21.3586L9.33772 23.6983C11.0931 24.0998 12.9164 24.1006 14.6722 23.7007L14.1382 21.361ZM21.1764 14.8327C21.0833 15.1352 20.9755 15.4321 20.8535 15.7226C20.5426 16.4633 20.1398 17.162 19.6546 17.8022C19.4641 18.0535 19.2609 18.2959 19.0455 18.5282L20.8045 20.16C22.0279 18.8397 22.9383 17.2609 23.4681 15.5406L21.1764 14.8327ZM20.3174 7.20061C20.5206 7.55255 20.6991 7.91184 20.8533 8.27644C20.9777 8.57063 21.0861 8.86829 21.1788 9.16833L23.4705 8.45803C23.2054 7.60124 22.8448 6.77698 22.3955 6.00078L20.3174 7.20061ZM19.0455 5.47166C19.2581 5.7019 19.4611 5.9441 19.6534 6.19835C19.892 6.51381 20.1141 6.84783 20.3174 7.20061L22.3955 6.00078C21.9477 5.22389 21.4144 4.4995 20.8057 3.84109L19.0443 5.47286L19.0455 5.47166ZM9.87164 2.63886C10.1806 2.56853 10.4921 2.51371 10.8051 2.4744C11.6019 2.37434 12.4081 2.37478 13.2048 2.47573C13.5178 2.51539 13.8293 2.57057 14.1382 2.64126L14.6722 0.30159C12.9172 -0.0997183 11.0931 -0.100539 9.33772 0.29919L9.87164 2.63886ZM10.8051 3.68751V2.4744V1.46782H8.40545V3.68751H10.8051ZM6.60571 4.72656L4.68478 3.61672L3.48495 5.69483L4.35532 6.19769L5.40588 6.80467L6.60571 4.72656ZM3.00622 13.039L1.08529 14.1476L2.28512 16.2257L3.15659 15.7228L4.20605 15.1171L3.00622 13.039ZM4.20605 8.88277L3.15635 8.27723L2.28632 7.77533L1.08649 9.85344L3.00622 10.9609L4.20605 8.88277ZM10.8051 22.5284V21.5241V20.3124H8.40545V22.5272L10.8051 22.5284ZM5.40588 17.1952L4.35647 17.8015L3.48495 18.305L4.68478 20.3831L6.60451 19.2733L5.40588 17.1952ZM20.5249 18.305L19.6546 17.8022L18.604 17.1952L17.4042 19.2733L19.3251 20.3831L20.5249 18.305ZM15.6044 22.5308V20.3124H13.2048V21.5255V22.532L15.6044 22.5308ZM21.7248 7.77293L20.8533 8.27644L19.8038 8.88277L21.0037 10.9609L22.9234 9.85104L21.7248 7.77293ZM22.9222 14.1464L21.0037 13.039L19.8038 15.1171L20.8535 15.7226L21.7236 16.2245L22.9222 14.1464ZM15.6044 3.68751V1.47142H13.2048V2.47573V3.68751H15.6044ZM19.3251 3.61672L17.4042 4.72656L18.604 6.80467L19.6534 6.19835L20.5249 5.69483L19.3251 3.61672ZM13.2048 3.68751C13.2048 6.45912 16.2043 8.19047 18.604 6.80467L17.4042 4.72656C17.2218 4.83187 17.0149 4.88731 16.8043 4.88731C16.5937 4.88731 16.3868 4.83187 16.2044 4.72657C16.022 4.62127 15.8705 4.46981 15.7652 4.28741C15.6599 4.10502 15.6044 3.89812 15.6044 3.68751H13.2048ZM19.8038 8.88277C17.4042 10.2686 17.4042 13.7313 19.8038 15.1171L21.0037 13.039C20.8213 12.9337 20.6698 12.7822 20.5645 12.5998C20.4592 12.4174 20.4038 12.2105 20.4038 11.9999C20.4038 11.7893 20.4592 11.5824 20.5645 11.4C20.6698 11.2177 20.8213 11.0662 21.0037 10.9609L19.8038 8.88277ZM18.604 17.1952C16.2043 15.8106 13.2048 17.5419 13.2048 20.3124H15.6044C15.6044 20.1017 15.6599 19.8948 15.7652 19.7124C15.8705 19.5301 16.022 19.3786 16.2044 19.2733C16.3868 19.168 16.5937 19.1126 16.8043 19.1126C17.0149 19.1126 17.2218 19.168 17.4042 19.2733L18.604 17.1952ZM10.8051 20.3124C10.8051 17.5407 7.80554 15.8094 5.40588 17.1952L6.60451 19.2733C6.7869 19.168 6.995 19.1126 7.20562 19.1126C7.41623 19.1126 7.62313 19.168 7.80552 19.2733C7.98792 19.3786 8.13938 19.5301 8.24469 19.7124C8.35 19.8948 8.40545 20.1017 8.40545 20.3124H10.8051ZM4.20605 15.1171C6.60571 13.7313 6.60571 10.2686 4.20605 8.88277L3.00622 10.9609C3.1886 11.0662 3.34005 11.2177 3.44535 11.4C3.55065 11.5824 3.60608 11.7893 3.60608 11.9999C3.60608 12.2105 3.55065 12.4174 3.44535 12.5998C3.34005 12.7822 3.1886 12.9337 3.00622 13.039L4.20605 15.1171ZM8.40545 3.68751C8.40545 3.89812 8.35 4.10502 8.24469 4.28741C8.13938 4.46981 7.98792 4.62127 7.80552 4.72657C7.62313 4.83187 7.41623 4.88731 7.20562 4.88731C6.995 4.88731 6.7881 4.83187 6.60571 4.72656L5.40588 6.80467C7.80554 8.18927 10.8051 6.45792 10.8051 3.68751H8.40545Z" fill="#656774"/>
<path d="M4.35532 6.19769C3.87012 6.83789 3.4673 7.53657 3.15635 8.27723L4.20605 8.88277C6.60571 10.2686 6.60571 13.7313 4.20605 15.1171L3.15659 15.7228C3.31253 16.0921 3.49148 16.4517 3.69252 16.7993C3.89268 17.1471 4.1146 17.4818 4.35647 17.8015L5.40588 17.1952C7.80554 15.8094 10.8051 17.5407 10.8051 20.3124V21.5241C11.6018 21.6251 12.408 21.6255 13.2048 21.5255V20.3124C13.2048 17.5419 16.2043 15.8106 18.604 17.1952L19.6546 17.8022C20.1398 17.162 20.5426 16.4633 20.8535 15.7226L19.8038 15.1171C17.4042 13.7313 17.4042 10.2686 19.8038 8.88277L20.8533 8.27644C20.6991 7.91184 20.5206 7.55255 20.3174 7.20061C20.1141 6.84783 19.892 6.51381 19.6534 6.19835L18.604 6.80467C16.2043 8.19047 13.2048 6.45912 13.2048 3.68751V2.47573C12.4081 2.37478 11.6019 2.37434 10.8051 2.4744V3.68751C10.8051 6.45792 7.80554 8.18927 5.40588 6.80467L4.35532 6.19769Z" fill="#656774"/>
</g>
</svg>
