<svg width="42" height="43" viewBox="0 0 42 43" fill="none" xmlns="http://www.w3.org/2000/svg">
<g filter="url(#filter0_d_2_1877)">
<rect x="5" y="3.28516" width="32" height="32" rx="10" fill="#EF3024"/>
</g>
<path opacity="0.3" d="M27.0241 13.3012C27.5786 13.3012 28.0281 12.8517 28.0281 12.2972C28.0281 11.7427 27.5786 11.2932 27.0241 11.2932C26.4696 11.2932 26.0201 11.7427 26.0201 12.2972C26.0201 12.8517 26.4696 13.3012 27.0241 13.3012Z" fill="white"/>
<path opacity="0.3" d="M14.9759 20.3293C15.5304 20.3293 15.9799 19.8798 15.9799 19.3253C15.9799 18.7708 15.5304 18.3213 14.9759 18.3213C14.4214 18.3213 13.9719 18.7708 13.9719 19.3253C13.9719 19.8798 14.4214 20.3293 14.9759 20.3293Z" fill="white"/>
<path opacity="0.3" d="M27.0241 27.3777C27.5786 27.3777 28.0281 26.9281 28.0281 26.3736C28.0281 25.8191 27.5786 25.3696 27.0241 25.3696C26.4696 25.3696 26.0201 25.8191 26.0201 26.3736C26.0201 26.9281 26.4696 27.3777 27.0241 27.3777Z" fill="white"/>
<path d="M27.0241 23.4217C26.2611 23.4217 25.5783 23.7229 25.0562 24.1948L17.8976 20.0281C17.9478 19.7972 17.988 19.5663 17.988 19.3253C17.988 19.0844 17.9478 18.8534 17.8976 18.6225L24.9759 14.496C25.5181 14.998 26.2309 15.3093 27.0241 15.3093C28.6908 15.3093 30.0362 13.9639 30.0362 12.2972C30.0362 10.6305 28.6908 9.28516 27.0241 9.28516C25.3574 9.28516 24.0121 10.6305 24.0121 12.2972C24.0121 12.5382 24.0522 12.7691 24.1024 13L17.0241 17.1265C16.4819 16.6245 15.7691 16.3133 14.9759 16.3133C13.3092 16.3133 11.9639 17.6587 11.9639 19.3253C11.9639 20.992 13.3092 22.3374 14.9759 22.3374C15.7691 22.3374 16.4819 22.0261 17.0241 21.5241L24.1727 25.7008C24.1225 25.9117 24.0924 26.1325 24.0924 26.3534C24.0924 27.9699 25.4076 29.2852 27.0241 29.2852C28.6406 29.2852 29.9558 27.9699 29.9558 26.3534C29.9558 24.737 28.6406 23.4217 27.0241 23.4217ZM27.0241 11.2932C27.5763 11.2932 28.0281 11.745 28.0281 12.2972C28.0281 12.8494 27.5763 13.3012 27.0241 13.3012C26.4719 13.3012 26.0201 12.8494 26.0201 12.2972C26.0201 11.745 26.4719 11.2932 27.0241 11.2932ZM14.9759 20.3293C14.4237 20.3293 13.9719 19.8775 13.9719 19.3253C13.9719 18.7731 14.4237 18.3213 14.9759 18.3213C15.5281 18.3213 15.9799 18.7731 15.9799 19.3253C15.9799 19.8775 15.5281 20.3293 14.9759 20.3293ZM27.0241 27.3775C26.4719 27.3775 26.0201 26.9257 26.0201 26.3735C26.0201 25.8213 26.4719 25.3695 27.0241 25.3695C27.5763 25.3695 28.0281 25.8213 28.0281 26.3735C28.0281 26.9257 27.5763 27.3775 27.0241 27.3775Z" fill="white"/>
<defs>
<filter id="filter0_d_2_1877" x="0" y="0.285156" width="42" height="42" filterUnits="userSpaceOnUse" color-interpolation-filters="sRGB">
<feFlood flood-opacity="0" result="BackgroundImageFix"/>
<feColorMatrix in="SourceAlpha" type="matrix" values="0 0 0 0 0 0 0 0 0 0 0 0 0 0 0 0 0 0 127 0" result="hardAlpha"/>
<feOffset dy="2"/>
<feGaussianBlur stdDeviation="2.5"/>
<feComposite in2="hardAlpha" operator="out"/>
<feColorMatrix type="matrix" values="0 0 0 0 0.937255 0 0 0 0 0.188235 0 0 0 0 0.141176 0 0 0 0.5 0"/>
<feBlend mode="normal" in2="BackgroundImageFix" result="effect1_dropShadow_2_1877"/>
<feBlend mode="normal" in="SourceGraphic" in2="effect1_dropShadow_2_1877" result="shape"/>
</filter>
</defs>
</svg>
