<svg width="42" height="42" viewBox="0 0 42 42" fill="none" xmlns="http://www.w3.org/2000/svg">
<g filter="url(#filter0_d_55_24703)">
<rect x="5" y="1" width="32" height="32" rx="14" fill="#0091EA"/>
</g>
<path opacity="0.3" d="M27.0255 11.0161C27.58 11.0161 28.0295 10.5666 28.0295 10.0121C28.0295 9.45757 27.58 9.00806 27.0255 9.00806C26.471 9.00806 26.0215 9.45757 26.0215 10.0121C26.0215 10.5666 26.471 11.0161 27.0255 11.0161Z" fill="#FCFEFF"/>
<path opacity="0.3" d="M14.9767 18.0442C15.5312 18.0442 15.9807 17.5947 15.9807 17.0401C15.9807 16.4856 15.5312 16.0361 14.9767 16.0361C14.4222 16.0361 13.9727 16.4856 13.9727 17.0401C13.9727 17.5947 14.4222 18.0442 14.9767 18.0442Z" fill="#FCFEFF"/>
<path opacity="0.3" d="M27.0255 25.0924C27.58 25.0924 28.0295 24.6429 28.0295 24.0884C28.0295 23.5339 27.58 23.0844 27.0255 23.0844C26.471 23.0844 26.0215 23.5339 26.0215 24.0884C26.0215 24.6429 26.471 25.0924 27.0255 25.0924Z" fill="#FCFEFF"/>
<path d="M27.0251 21.1365C26.262 21.1365 25.5793 21.4378 25.0572 21.9096L17.8986 17.743C17.9488 17.512 17.9889 17.2811 17.9889 17.0402C17.9889 16.7992 17.9488 16.5683 17.8986 16.3373L24.9769 12.2108C25.5191 12.7129 26.2319 13.0241 27.0251 13.0241C28.6918 13.0241 30.0371 11.6787 30.0371 10.012C30.0371 8.34538 28.6918 7 27.0251 7C25.3584 7 24.013 8.34538 24.013 10.012C24.013 10.253 24.0532 10.4839 24.1034 10.7149L17.0251 14.8414C16.4829 14.3394 15.7701 14.0281 14.9769 14.0281C13.3102 14.0281 11.9648 15.3735 11.9648 17.0402C11.9648 18.7068 13.3102 20.0522 14.9769 20.0522C15.7701 20.0522 16.4829 19.741 17.0251 19.239L24.1737 23.4157C24.1235 23.6265 24.0934 23.8474 24.0934 24.0683C24.0934 25.6847 25.4086 27 27.0251 27C28.6416 27 29.9568 25.6847 29.9568 24.0683C29.9568 22.4518 28.6416 21.1365 27.0251 21.1365ZM27.0251 9.00803C27.5773 9.00803 28.0291 9.45984 28.0291 10.012C28.0291 10.5643 27.5773 11.0161 27.0251 11.0161C26.4729 11.0161 26.0211 10.5643 26.0211 10.012C26.0211 9.45984 26.4729 9.00803 27.0251 9.00803ZM14.9769 18.0442C14.4247 18.0442 13.9729 17.5924 13.9729 17.0402C13.9729 16.488 14.4247 16.0361 14.9769 16.0361C15.5291 16.0361 15.9809 16.488 15.9809 17.0402C15.9809 17.5924 15.5291 18.0442 14.9769 18.0442ZM27.0251 25.0924C26.4729 25.0924 26.0211 24.6406 26.0211 24.0884C26.0211 23.5361 26.4729 23.0843 27.0251 23.0843C27.5773 23.0843 28.0291 23.5361 28.0291 24.0884C28.0291 24.6406 27.5773 25.0924 27.0251 25.0924Z" fill="#FCFEFF"/>
<defs>
<filter id="filter0_d_55_24703" x="0" y="0" width="42" height="42" filterUnits="userSpaceOnUse" color-interpolation-filters="sRGB">
<feFlood flood-opacity="0" result="BackgroundImageFix"/>
<feColorMatrix in="SourceAlpha" type="matrix" values="0 0 0 0 0 0 0 0 0 0 0 0 0 0 0 0 0 0 127 0" result="hardAlpha"/>
<feOffset dy="4"/>
<feGaussianBlur stdDeviation="2.5"/>
<feComposite in2="hardAlpha" operator="out"/>
<feColorMatrix type="matrix" values="0 0 0 0 0 0 0 0 0 0.568627 0 0 0 0 0.917647 0 0 0 0.45 0"/>
<feBlend mode="normal" in2="BackgroundImageFix" result="effect1_dropShadow_55_24703"/>
<feBlend mode="normal" in="SourceGraphic" in2="effect1_dropShadow_55_24703" result="shape"/>
</filter>
</defs>
</svg>
