<svg width="72" height="72" viewBox="0 0 72 72" fill="none" xmlns="http://www.w3.org/2000/svg">
<g filter="url(#filter0_d_55_24716)">
<circle cx="36" cy="31" r="26" fill="#FCFEFF"/>
<circle cx="36" cy="31" r="25.5" stroke="url(#paint0_linear_55_24716)"/>
</g>
<path d="M28.6292 36C28.2345 36 27.9305 35.8987 27.7172 35.696C27.5145 35.4827 27.4132 35.184 27.4132 34.8C27.4132 34.416 27.5145 34.1227 27.7172 33.92C27.9305 33.7173 28.2345 33.616 28.6292 33.616H30.0692V27.072H31.4132L29.0932 28.496C28.8159 28.6667 28.5545 28.736 28.3092 28.704C28.0639 28.6613 27.8559 28.5547 27.6852 28.384C27.5145 28.2133 27.4025 28.0053 27.3492 27.76C27.2959 27.5147 27.3172 27.2693 27.4132 27.024C27.5092 26.7787 27.7012 26.5707 27.9892 26.4L30.1972 25.024C30.4319 24.8747 30.6719 24.7627 30.9172 24.688C31.1732 24.6133 31.4399 24.576 31.7172 24.576C32.1225 24.576 32.4372 24.6827 32.6612 24.896C32.8852 25.0987 32.9972 25.3973 32.9972 25.792V33.616H34.2772C34.6719 33.616 34.9705 33.7173 35.1732 33.92C35.3865 34.1227 35.4932 34.416 35.4932 34.8C35.4932 35.184 35.3865 35.4827 35.1732 35.696C34.9705 35.8987 34.6719 36 34.2772 36H28.6292ZM37.7749 36.144C37.4016 36.144 37.0923 36.0427 36.8469 35.84C36.6016 35.6373 36.4576 35.3813 36.4149 35.072C36.3829 34.7627 36.4896 34.448 36.7349 34.128L40.1269 29.648V30.976L36.8309 26.608C36.5856 26.2773 36.4789 25.9573 36.5109 25.648C36.5536 25.3387 36.6976 25.0827 36.9429 24.88C37.1883 24.6773 37.4976 24.576 37.8709 24.576C38.1803 24.576 38.4523 24.6507 38.6869 24.8C38.9216 24.9493 39.1563 25.1893 39.3909 25.52L41.7749 28.832H40.8149L43.2149 25.52C43.4496 25.1787 43.6843 24.9387 43.9189 24.8C44.1536 24.6507 44.4256 24.576 44.7349 24.576C45.1189 24.576 45.4336 24.6773 45.6789 24.88C45.9243 25.072 46.0629 25.3227 46.0949 25.632C46.1376 25.9413 46.0309 26.2667 45.7749 26.608L42.4629 30.976V29.648L45.8549 34.128C46.1109 34.448 46.2176 34.7627 46.1749 35.072C46.1429 35.3813 46.0043 35.6373 45.7589 35.84C45.5136 36.0427 45.1989 36.144 44.8149 36.144C44.5163 36.144 44.2496 36.0747 44.0149 35.936C43.7803 35.7867 43.5403 35.5413 43.2949 35.2L40.8309 31.792H41.7589L39.3109 35.2C39.0656 35.5413 38.8256 35.7867 38.5909 35.936C38.3563 36.0747 38.0843 36.144 37.7749 36.144Z" fill="#0091EA"/>
<defs>
<filter id="filter0_d_55_24716" x="0" y="0" width="72" height="72" filterUnits="userSpaceOnUse" color-interpolation-filters="sRGB">
<feFlood flood-opacity="0" result="BackgroundImageFix"/>
<feColorMatrix in="SourceAlpha" type="matrix" values="0 0 0 0 0 0 0 0 0 0 0 0 0 0 0 0 0 0 127 0" result="hardAlpha"/>
<feOffset dy="5"/>
<feGaussianBlur stdDeviation="5"/>
<feComposite in2="hardAlpha" operator="out"/>
<feColorMatrix type="matrix" values="0 0 0 0 0 0 0 0 0 0 0 0 0 0 0 0 0 0 0.05 0"/>
<feBlend mode="normal" in2="BackgroundImageFix" result="effect1_dropShadow_55_24716"/>
<feBlend mode="normal" in="SourceGraphic" in2="effect1_dropShadow_55_24716" result="shape"/>
</filter>
<linearGradient id="paint0_linear_55_24716" x1="36" y1="5" x2="36" y2="57" gradientUnits="userSpaceOnUse">
<stop stop-color="white"/>
<stop offset="1" stop-color="#DFE2EE"/>
</linearGradient>
</defs>
</svg>
