<svg width="28" height="21" viewBox="0 0 28 21" fill="none" xmlns="http://www.w3.org/2000/svg">
<g filter="url(#filter0_d_112_11161)">
<path d="M5.62919 11.999C5.23452 11.999 4.93052 11.8977 4.71719 11.695C4.51452 11.4817 4.41319 11.183 4.41319 10.799C4.41319 10.415 4.51452 10.1217 4.71719 9.91902C4.93052 9.71636 5.23452 9.61502 5.62919 9.61502H7.06919V3.07102H8.41319L6.09319 4.49502C5.81585 4.66569 5.55452 4.73502 5.30919 4.70302C5.06385 4.66036 4.85585 4.55369 4.68519 4.38302C4.51452 4.21236 4.40252 4.00436 4.34919 3.75902C4.29585 3.51369 4.31719 3.26836 4.41319 3.02302C4.50919 2.77769 4.70119 2.56969 4.98919 2.39902L7.19719 1.02302C7.43185 0.873689 7.67185 0.76169 7.91719 0.687023C8.17319 0.612356 8.43985 0.575023 8.71719 0.575023C9.12252 0.575023 9.43719 0.68169 9.66119 0.895023C9.88519 1.09769 9.99719 1.39636 9.99719 1.79102V9.61502H11.2772C11.6719 9.61502 11.9705 9.71636 12.1732 9.91902C12.3865 10.1217 12.4932 10.415 12.4932 10.799C12.4932 11.183 12.3865 11.4817 12.1732 11.695C11.9705 11.8977 11.6719 11.999 11.2772 11.999H5.62919ZM14.7749 12.143C14.4016 12.143 14.0923 12.0417 13.8469 11.839C13.6016 11.6364 13.4576 11.3804 13.4149 11.071C13.3829 10.7617 13.4896 10.447 13.7349 10.127L17.1269 5.64702V6.97502L13.8309 2.60702C13.5856 2.27636 13.4789 1.95636 13.5109 1.64702C13.5536 1.33769 13.6976 1.08169 13.9429 0.879023C14.1883 0.676356 14.4976 0.575023 14.8709 0.575023C15.1803 0.575023 15.4523 0.649689 15.6869 0.799023C15.9216 0.948356 16.1563 1.18836 16.3909 1.51902L18.7749 4.83102H17.8149L20.2149 1.51902C20.4496 1.17769 20.6843 0.937689 20.9189 0.799023C21.1536 0.649689 21.4256 0.575023 21.7349 0.575023C22.1189 0.575023 22.4336 0.676356 22.6789 0.879023C22.9243 1.07102 23.0629 1.32169 23.0949 1.63102C23.1376 1.94036 23.0309 2.26569 22.7749 2.60702L19.4629 6.97502V5.64702L22.8549 10.127C23.1109 10.447 23.2176 10.7617 23.1749 11.071C23.1429 11.3804 23.0043 11.6364 22.7589 11.839C22.5136 12.0417 22.1989 12.143 21.8149 12.143C21.5163 12.143 21.2496 12.0737 21.0149 11.935C20.7803 11.7857 20.5403 11.5404 20.2949 11.199L17.8309 7.79102H18.7589L16.3109 11.199C16.0656 11.5404 15.8256 11.7857 15.5909 11.935C15.3563 12.0737 15.0843 12.143 14.7749 12.143Z" fill="#0091EA"/>
</g>
<defs>
<filter id="filter0_d_112_11161" x="0.265625" y="0.575195" width="26.9766" height="19.5679" filterUnits="userSpaceOnUse" color-interpolation-filters="sRGB">
<feFlood flood-opacity="0" result="BackgroundImageFix"/>
<feColorMatrix in="SourceAlpha" type="matrix" values="0 0 0 0 0 0 0 0 0 0 0 0 0 0 0 0 0 0 127 0" result="hardAlpha"/>
<feOffset dy="4"/>
<feGaussianBlur stdDeviation="2"/>
<feComposite in2="hardAlpha" operator="out"/>
<feColorMatrix type="matrix" values="0 0 0 0 0 0 0 0 0 0 0 0 0 0 0 0 0 0 0.25 0"/>
<feBlend mode="normal" in2="BackgroundImageFix" result="effect1_dropShadow_112_11161"/>
<feBlend mode="normal" in="SourceGraphic" in2="effect1_dropShadow_112_11161" result="shape"/>
</filter>
</defs>
</svg>
