<svg width="62" height="62" viewBox="0 0 62 62" fill="none" xmlns="http://www.w3.org/2000/svg">
<g filter="url(#filter0_d_55_24783)">
<circle cx="31" cy="27" r="26" fill="#0091EA"/>
<circle cx="31" cy="27" r="25.5" stroke="#0091EA"/>
</g>
<path d="M23.6292 32C23.2345 32 22.9305 31.8987 22.7172 31.696C22.5145 31.4827 22.4132 31.184 22.4132 30.8C22.4132 30.416 22.5145 30.1227 22.7172 29.92C22.9305 29.7173 23.2345 29.616 23.6292 29.616H25.0692V23.072H26.4132L24.0932 24.496C23.8159 24.6667 23.5545 24.736 23.3092 24.704C23.0639 24.6613 22.8559 24.5547 22.6852 24.384C22.5145 24.2133 22.4025 24.0053 22.3492 23.76C22.2959 23.5147 22.3172 23.2693 22.4132 23.024C22.5092 22.7787 22.7012 22.5707 22.9892 22.4L25.1972 21.024C25.4319 20.8747 25.6719 20.7627 25.9172 20.688C26.1732 20.6133 26.4399 20.576 26.7172 20.576C27.1225 20.576 27.4372 20.6827 27.6612 20.896C27.8852 21.0987 27.9972 21.3973 27.9972 21.792V29.616H29.2772C29.6719 29.616 29.9705 29.7173 30.1732 29.92C30.3865 30.1227 30.4932 30.416 30.4932 30.8C30.4932 31.184 30.3865 31.4827 30.1732 31.696C29.9705 31.8987 29.6719 32 29.2772 32H23.6292ZM32.7749 32.144C32.4016 32.144 32.0923 32.0427 31.8469 31.84C31.6016 31.6373 31.4576 31.3813 31.4149 31.072C31.3829 30.7627 31.4896 30.448 31.7349 30.128L35.1269 25.648V26.976L31.8309 22.608C31.5856 22.2773 31.4789 21.9573 31.5109 21.648C31.5536 21.3387 31.6976 21.0827 31.9429 20.88C32.1883 20.6773 32.4976 20.576 32.8709 20.576C33.1803 20.576 33.4523 20.6507 33.6869 20.8C33.9216 20.9493 34.1563 21.1893 34.3909 21.52L36.7749 24.832H35.8149L38.2149 21.52C38.4496 21.1787 38.6843 20.9387 38.9189 20.8C39.1536 20.6507 39.4256 20.576 39.7349 20.576C40.1189 20.576 40.4336 20.6773 40.6789 20.88C40.9243 21.072 41.0629 21.3227 41.0949 21.632C41.1376 21.9413 41.0309 22.2667 40.7749 22.608L37.4629 26.976V25.648L40.8549 30.128C41.1109 30.448 41.2176 30.7627 41.1749 31.072C41.1429 31.3813 41.0043 31.6373 40.7589 31.84C40.5136 32.0427 40.1989 32.144 39.8149 32.144C39.5163 32.144 39.2496 32.0747 39.0149 31.936C38.7803 31.7867 38.5403 31.5413 38.2949 31.2L35.8309 27.792H36.7589L34.3109 31.2C34.0656 31.5413 33.8256 31.7867 33.5909 31.936C33.3563 32.0747 33.0843 32.144 32.7749 32.144Z" fill="#FCFEFF"/>
<defs>
<filter id="filter0_d_55_24783" x="0" y="0" width="62" height="62" filterUnits="userSpaceOnUse" color-interpolation-filters="sRGB">
<feFlood flood-opacity="0" result="BackgroundImageFix"/>
<feColorMatrix in="SourceAlpha" type="matrix" values="0 0 0 0 0 0 0 0 0 0 0 0 0 0 0 0 0 0 127 0" result="hardAlpha"/>
<feOffset dy="4"/>
<feGaussianBlur stdDeviation="2.5"/>
<feComposite in2="hardAlpha" operator="out"/>
<feColorMatrix type="matrix" values="0 0 0 0 0 0 0 0 0 0.568627 0 0 0 0 0.917647 0 0 0 0.45 0"/>
<feBlend mode="normal" in2="BackgroundImageFix" result="effect1_dropShadow_55_24783"/>
<feBlend mode="normal" in="SourceGraphic" in2="effect1_dropShadow_55_24783" result="shape"/>
</filter>
</defs>
</svg>
