<svg width="36" height="36" viewBox="0 0 36 36" fill="none" xmlns="http://www.w3.org/2000/svg">
<path opacity="0.3" d="M18 5.99976C11.385 5.99976 6 11.3848 6 17.9998C6 24.6148 11.385 29.9998 18 29.9998C18.42 29.9998 18.75 29.6698 18.75 29.2498C18.7453 29.0552 18.6708 28.8688 18.54 28.7248C17.925 28.0348 17.595 27.1498 17.595 26.2498C17.595 25.2552 17.9901 24.3014 18.6933 23.5981C19.3966 22.8948 20.3504 22.4998 21.345 22.4998H24C27.315 22.4998 30 19.8148 30 16.4998C30 10.7098 24.615 5.99976 18 5.99976ZM9.75 19.4998C8.505 19.4998 7.5 18.4948 7.5 17.2498C7.5 16.0048 8.505 14.9998 9.75 14.9998C10.995 14.9998 12 16.0048 12 17.2498C12 18.4948 10.995 19.4998 9.75 19.4998ZM14.25 13.4998C13.005 13.4998 12 12.4948 12 11.2498C12 10.0048 13.005 8.99976 14.25 8.99976C15.495 8.99976 16.5 10.0048 16.5 11.2498C16.5 12.4948 15.495 13.4998 14.25 13.4998ZM21.75 13.4998C20.505 13.4998 19.5 12.4948 19.5 11.2498C19.5 10.0048 20.505 8.99976 21.75 8.99976C22.995 8.99976 24 10.0048 24 11.2498C24 12.4948 22.995 13.4998 21.75 13.4998ZM28.5 17.2498C28.5 18.4948 27.495 19.4998 26.25 19.4998C25.005 19.4998 24 18.4948 24 17.2498C24 16.0048 25.005 14.9998 26.25 14.9998C27.495 14.9998 28.5 16.0048 28.5 17.2498Z" fill="#545454"/>
<path d="M18 2.99976C9.735 2.99976 3 9.73476 3 17.9998C3 26.2648 9.735 32.9998 18 32.9998C18.7244 32.9996 19.4333 32.7897 20.041 32.3953C20.6486 32.0009 21.1291 31.4389 21.4242 30.7773C21.7193 30.1157 21.8164 29.3828 21.7039 28.6672C21.5913 27.9516 21.2739 27.2838 20.79 26.7448C20.6919 26.6381 20.6272 26.505 20.6038 26.362C20.5804 26.219 20.5994 26.0723 20.6584 25.9399C20.7174 25.8075 20.8139 25.6953 20.9359 25.6171C21.0579 25.5389 21.2001 25.4981 21.345 25.4998H24C28.965 25.4998 33 21.4648 33 16.4998C33 9.05976 26.265 2.99976 18 2.99976ZM24 22.4998H21.345C20.3504 22.4998 19.3966 22.8948 18.6933 23.5981C17.9901 24.3014 17.595 25.2552 17.595 26.2498C17.595 27.1648 17.925 28.0348 18.54 28.7248C18.63 28.8298 18.75 29.0098 18.75 29.2498C18.75 29.6698 18.42 29.9998 18 29.9998C11.385 29.9998 6 24.6148 6 17.9998C6 11.3848 11.385 5.99976 18 5.99976C24.615 5.99976 30 10.7098 30 16.4998C30 19.8148 27.315 22.4998 24 22.4998Z" fill="#545454"/>
<path d="M9.75 19.4998C10.9926 19.4998 12 18.4924 12 17.2498C12 16.0071 10.9926 14.9998 9.75 14.9998C8.50736 14.9998 7.5 16.0071 7.5 17.2498C7.5 18.4924 8.50736 19.4998 9.75 19.4998Z" fill="#545454"/>
<path d="M14.25 13.4998C15.4926 13.4998 16.5 12.4924 16.5 11.2498C16.5 10.0071 15.4926 8.99976 14.25 8.99976C13.0074 8.99976 12 10.0071 12 11.2498C12 12.4924 13.0074 13.4998 14.25 13.4998Z" fill="#545454"/>
<path d="M21.75 13.4998C22.9926 13.4998 24 12.4924 24 11.2498C24 10.0071 22.9926 8.99976 21.75 8.99976C20.5074 8.99976 19.5 10.0071 19.5 11.2498C19.5 12.4924 20.5074 13.4998 21.75 13.4998Z" fill="#545454"/>
<path d="M26.25 19.4998C27.4926 19.4998 28.5 18.4924 28.5 17.2498C28.5 16.0071 27.4926 14.9998 26.25 14.9998C25.0074 14.9998 24 16.0071 24 17.2498C24 18.4924 25.0074 19.4998 26.25 19.4998Z" fill="#545454"/>
</svg>
